<?xml version="1.0" encoding="UTF-8" standalone="no"?>
<svg width="132px" height="32px" viewBox="0 0 132 32" version="1.1" xmlns="http://www.w3.org/2000/svg" xmlns:xlink="http://www.w3.org/1999/xlink" xmlns:sketch="http://www.bohemiancoding.com/sketch/ns">
    <!-- Generator: Sketch 3.4 (15575) - http://www.bohemiancoding.com/sketch -->
    <title>Logo</title>
    <desc>Created with Sketch.</desc>
    <defs></defs>
    <g id="Logos" stroke="none" stroke-width="1" fill="none" fill-rule="evenodd" sketch:type="MSPage">
        <g id="Hero" sketch:type="MSArtboardGroup" transform="translate(-262.000000, -266.000000)" fill="#FFFFFF">
            <g id="Logo" sketch:type="MSLayerGroup" transform="translate(262.000000, 261.000000)">
                <g id="fashion" transform="translate(0.000000, 5.000000)" sketch:type="MSShapeGroup">
                    <g id="Capa_1">
                        <g id="Group">
                            <path d="M9.34344086,19.4844086 C8.11139785,18.2048387 8.15021505,16.1613978 9.42989247,14.9292473 C10.7177419,13.6894624 12.7570968,13.7405376 13.9848387,15.0158065 L14.0135484,15.0455914 L13.2064516,8.19602151 C12.9986022,6.43182796 14.2647312,4.82741935 16.0283871,4.61967742 C16.1309677,4.60752688 16.2347312,4.6016129 16.337957,4.59935484 L16.4669892,3.08354839 C16.5423656,2.1983871 15.8858065,1.41967742 15.0006452,1.34430108 C14.1160215,1.26892473 13.3367742,1.92548387 13.2613978,2.81064516 L12.8109677,8.10193548 C12.7830108,8.42989247 12.2924731,8.40967742 12.2924731,8.07989247 L12.2924731,1.60860215 C12.2924731,0.720215054 11.5722581,0 10.683871,0 C9.79548387,0 9.07526882,0.720215054 9.07526882,1.60860215 L9.07526882,7.97784946 C9.07526882,8.24623656 8.67795699,8.27 8.64645161,8.00301075 L8.03709677,2.83225806 C7.93311828,1.95 7.13354839,1.31870968 6.25129032,1.42290323 C5.36892473,1.52688172 4.73806452,2.32645161 4.84193548,3.2088172 L6.09795699,13.8683871 C6.13397849,14.174086 5.75935484,14.3510753 5.54602151,14.1294624 L2.85655914,11.3360215 C2.24043011,10.696129 1.22215054,10.6766667 0.582150538,11.2929032 C-0.0578494624,11.9090323 -0.0772043011,12.9273118 0.539032258,13.5673118 C7.7055914,21.0109677 7.90731183,21.0092473 8.09010753,21.1252688 C7.62774194,21.2123656 7.27784946,21.6177419 7.27784946,22.1053763 L7.27784946,24.7111828 C7.27784946,25.2623656 7.72473118,25.7092473 8.27591398,25.7092473 L15.3365591,25.7092473 C14.7310753,25.0803226 9.99086022,20.1567742 9.34344086,19.4844086 L9.34344086,19.4844086 Z" id="Shape"></path>
                            <path d="M28.2106452,19.8992473 L29.9584946,11.3378495 C30.1201075,10.545914 29.6092473,9.77290323 28.8172043,9.6111828 C28.0258065,9.45043011 27.2522581,9.96064516 27.0905376,10.7524731 L26.3937634,14.1655914 C26.3310753,14.4724731 25.8783871,14.4022581 25.9046237,14.0950538 L26.4335484,7.88193548 C26.5089247,6.99677419 25.8523656,6.21806452 24.9672043,6.14268817 C24.0822581,6.06731183 23.3033333,6.72397849 23.227957,7.60903226 L22.7775269,12.9003226 C22.7492473,13.2317204 22.2590323,13.2080645 22.2590323,12.8782796 L22.2590323,6.40709677 C22.2590323,5.51870968 21.5388172,4.79849462 20.6504301,4.79849462 C19.762043,4.79849462 19.041828,5.51870968 19.041828,6.40709677 L19.041828,12.7763441 C19.041828,13.0451613 18.6447312,13.0707527 18.6130108,12.8015054 L18.0037634,7.63075269 C17.8997849,6.74870968 17.1003226,6.1172043 16.2178495,6.22139785 C15.3355914,6.32537634 14.7046237,7.12494624 14.8086022,8.00731183 L16.0646237,18.6668817 C16.1008602,18.9745161 15.7246237,19.1480645 15.5126882,18.927957 L12.8232258,16.1345161 C12.2072043,15.4947312 11.1889247,15.4750538 10.5488172,16.0912903 C9.9088172,16.7075269 9.88946237,17.7258065 10.5056989,18.3656989 C10.5056989,18.3656989 17.873871,25.8076344 18.0566667,25.9236559 C17.5944086,26.0108602 17.2445161,26.416129 17.2445161,26.9037634 L17.2445161,29.5095699 C17.2445161,30.0607527 17.6913978,30.5076344 18.2425806,30.5076344 L27.7252688,30.5076344 C28.2764516,30.5076344 28.7233333,30.0607527 28.7233333,29.5095699 L28.7233333,26.9037634 C28.7233333,26.4133333 28.3693548,26.0064516 27.9031183,25.9223656 C28.095914,25.6570968 28.2109677,25.3317204 28.2109677,24.9787097 L28.2109677,19.8992473 L28.2106452,19.8992473 Z M26.1994624,29.2805376 C25.5858065,29.2805376 25.0883871,28.7831183 25.0883871,28.1694624 C25.0883871,27.5558065 25.5858065,27.0583871 26.1994624,27.0583871 C26.8131183,27.0583871 27.3105376,27.5558065 27.3105376,28.1694624 C27.3105376,28.7831183 26.8130108,29.2805376 26.1994624,29.2805376 L26.1994624,29.2805376 Z" id="Shape"></path>
                        </g>
                    </g>
                </g>
                <text id="Gloove" sketch:type="MSTextLayer" font-family="Intro Script B" font-size="40" font-weight="normal" letter-spacing="-1.20000005">
                    <tspan x="30" y="36">Gl</tspan>
                    <tspan x="66.1599999" y="36" letter-spacing="-0.100000001">oo</tspan>
                    <tspan x="100.12" y="36">ve</tspan>
                </text>
            </g>
        </g>
    </g>
</svg>