<svg id="objects" xmlns="http://www.w3.org/2000/svg" viewBox="0 0 137.99 61.48"><defs><style>.cls-1{fill:#fff;}.cls-2{fill:#e6e6e6;}</style></defs><title>cloud</title><path class="cls-1" d="M117.38,248.36a10.53,10.53,0,0,0,10.3,10.75H245.07a10.76,10.76,0,0,0,0-21.51h-1.54a18.13,18.13,0,0,0,.46-4c0-12-11.76-21.69-26.26-21.69a31,31,0,0,0-10.25,1.71c-4.61-9.4-15.75-16-28.79-16-17.16,0-31.07,11.49-31.07,25.66a20.79,20.79,0,0,0,.16,2.52,13.11,13.11,0,0,0-7.44-2.28c-6.43,0-11.64,4.31-11.64,9.62a8.22,8.22,0,0,0,1.38,4.44h-2.39A10.53,10.53,0,0,0,117.38,248.36Z" transform="translate(-117.38 -197.62)"/><path class="cls-2" d="M178.68,197.62c-17.16,0-31.07,11.49-31.07,25.66a20.79,20.79,0,0,0,.16,2.52,13.11,13.11,0,0,0-7.44-2.28c-6.43,0-11.64,4.31-11.64,9.62a8.22,8.22,0,0,0,1.38,4.44h-2.39a10.76,10.76,0,0,0,0,21.51h58.7V198.43A37.28,37.28,0,0,0,178.68,197.62Z" transform="translate(-117.38 -197.62)"/></svg>