<?xml version="1.0" encoding="UTF-8" standalone="no"?>
<svg width="220px" height="220px" viewBox="0 0 220 220" version="1.1" xmlns="http://www.w3.org/2000/svg" xmlns:xlink="http://www.w3.org/1999/xlink" xmlns:sketch="http://www.bohemiancoding.com/sketch/ns">
    <!-- Generator: Sketch 3.4 (15575) - http://www.bohemiancoding.com/sketch -->
    <title>step-four</title>
    <desc>Created with Sketch.</desc>
    <defs></defs>
    <g id="Icons" stroke="none" stroke-width="1" fill="none" fill-rule="evenodd" sketch:type="MSPage">
        <g id="step-four" sketch:type="MSLayerGroup" transform="translate(-40.000000, -40.000000)">
            <path d="M150,260 C210.751322,260 260,210.751322 260,150 C260,89.2486775 210.751322,40 150,40 C89.2486775,40 40,89.2486775 40,150 C40,210.751322 89.2486775,260 150,260 Z" id="Oval-1" fill="#F4F5F9" sketch:type="MSShapeGroup"></path>
            <g id="shape-1" transform="translate(40.000000, 40.000000)" sketch:type="MSShapeGroup">
                <g id="Capa_1">
                    <g id="Group">
                        <path d="M110,0 C49.3459548,0 0,49.3459548 0,110 C0,170.654045 49.3459548,220 110,220 C112.472036,220 114.476974,217.995062 114.476974,215.523026 C114.476974,213.05099 112.472036,211.046052 110,211.046052 C54.2833111,211.046798 8.95394822,165.717435 8.95394822,110 C8.95394822,54.2825649 54.2833111,8.95394822 110,8.95394822 C165.716689,8.95394822 211.046052,54.2833111 211.046052,110 C211.046052,144.681626 193.57093,176.544251 164.29898,195.232633 C162.214949,196.563041 161.603842,199.331303 162.93425,201.415334 C164.264657,203.499366 167.032173,204.110473 169.116951,202.780065 C200.978083,182.438187 220,147.754323 220,110.000746 C220.000746,49.3459548 170.654791,0 110,0 L110,0 Z" id="Shape" fill="#5B60AF"></path>
                        <g id="Shape-Copy" transform="translate(36.000000, 39.000000)">
                            <path d="M73.5,4 L95.2910004,46.9140549 L141,50.3869019 C141,50.3869019 146.670936,62.7652899 136.945877,68.5046692 C126.403257,74.7265435 110.138359,88.4283447 110.138359,88.4283447 L121.040512,131.150864 C121.040512,131.150864 122.448769,137.114868 111.198769,137.114868 C99.9487686,137.114868 73.5000001,113.987305 73.5000001,113.987305 L73.5,4 Z" id="Rectangle-17" fill="#E6E6E6"></path>
                            <path d="M114.173492,87.8758644 L142.081424,67.4009492 C146.524678,64.1412203 148.295864,58.648678 146.592542,53.4082034 C144.889966,48.1669831 140.228949,44.7640678 134.718508,44.7387119 L100.105424,44.5783729 C98.5572203,44.5709153 97.1909831,43.5790508 96.7062373,42.1091525 L85.8576271,9.23891525 C84.1304407,4.00589831 79.4545085,0.625355932 73.9440678,0.624610169 C68.4336271,0.624610169 63.7569492,4.00589831 62.0297627,9.23816949 L57.1397966,24.0482712 C56.3649492,26.3944407 57.6387119,28.9255593 59.9856271,29.699661 C62.3325424,30.476 64.8621695,29.2007458 65.6377627,26.8538305 L70.5277288,12.0437288 C71.2839322,9.752 73.3332881,9.57376271 73.9440678,9.57376271 C74.5541017,9.57376271 76.6034576,9.752 77.359661,12.0437288 L88.2082712,44.9147119 C89.9011525,50.0418305 94.6650847,53.5029153 100.063661,53.5282712 L134.676746,53.6886102 C137.090034,53.6997966 137.89322,55.5940339 138.081153,56.1742373 C138.269831,56.7544407 138.733695,58.7583051 136.788,60.1856949 L108.879322,80.6606102 C104.526305,83.8547119 102.706644,89.4553898 104.351051,94.5981695 L114.898373,127.577288 C115.633695,129.876475 114.080271,131.225559 113.586576,131.583525 C113.092881,131.942237 111.330644,133.003458 109.371525,131.59322 L81.2734237,111.37261 C76.8898305,108.21878 70.9997966,108.21878 66.6162034,111.37261 L38.5128814,131.596949 C36.5537627,133.006441 34.7907797,131.945966 34.2978305,131.588 C33.8041356,131.229288 32.2507119,129.880949 32.9852881,127.582508 L43.5296271,94.5981695 C45.1740339,89.4561356 43.3536271,83.8554576 39.0013559,80.6613559 L11.0941695,60.1864407 C9.14847458,58.7590508 9.61233898,56.7544407 9.80101695,56.1749831 C9.98969492,55.5947797 10.7928814,53.7005424 13.2054237,53.6893559 L47.8207458,53.5290169 C50.2914576,53.5170847 52.2856271,51.5050169 52.2744407,49.0335593 C52.2625085,46.5695593 50.2616271,44.5798644 47.7998644,44.5798644 C47.7931525,44.5798644 13.163661,44.7402034 13.163661,44.7402034 C7.65322034,44.7655593 2.99220339,48.1684746 1.28962712,53.4096949 C-0.412949153,58.6509153 1.35749153,64.1434576 5.8,67.4031864 L33.7071864,87.8781017 C34.9548475,88.7938983 35.4768814,90.3995254 35.0055593,91.8738983 L24.4619661,124.858237 C22.784,130.106915 24.5805424,135.591254 29.0387119,138.829356 C31.276,140.454373 33.8429153,141.267254 36.411322,141.267254 C38.9610847,141.267254 41.512339,140.465559 43.7414237,138.862169 L71.844,118.637831 C73.1006102,117.73322 74.7897627,117.73322 76.0463729,118.637831 L104.144475,138.858441 C108.617559,142.077153 114.388271,142.06522 118.847186,138.825627 C123.306102,135.58678 125.101898,130.102441 123.423186,124.853017 L112.875119,91.871661 C112.403797,90.3972881 112.925085,88.7909153 114.173492,87.8758644 Z" fill="#383A86"></path>
                        </g>
                        <path d="M99,59.4 L92.4,79.2" id="Line" stroke="#ACD1D9" stroke-width="8" stroke-linecap="round"></path>
                        <path d="M150.173492,126.875864 L178.081424,106.400949 C182.524678,103.14122 184.295864,97.648678 182.592542,92.4082034 C180.889966,87.1669831 176.228949,83.7640678 170.718508,83.7387119 L136.105424,83.5783729 C134.55722,83.5709153 133.190983,82.5790508 132.706237,81.1091525 L121.857627,48.2389153 C120.130441,43.0058983 115.454508,39.6253559 109.944068,39.6246102 C104.433627,39.6246102 99.7569492,43.0058983 98.0297627,48.2381695 L93.1397966,63.0482712 C92.3649492,65.3944407 93.6387119,67.9255593 95.9856271,68.699661 C98.3325424,69.476 100.862169,68.2007458 101.637763,65.8538305 L106.527729,51.0437288 C107.283932,48.752 109.333288,48.5737627 109.944068,48.5737627 C110.554102,48.5737627 112.603458,48.752 113.359661,51.0437288 L124.208271,83.9147119 C125.901153,89.0418305 130.665085,92.5029153 136.063661,92.5282712 L170.676746,92.6886102 C173.090034,92.6997966 173.89322,94.5940339 174.081153,95.1742373 C174.269831,95.7544407 174.733695,97.7583051 172.788,99.1856949 L144.879322,119.66061 C140.526305,122.854712 138.706644,128.45539 140.351051,133.598169 L150.898373,166.577288 C151.633695,168.876475 150.080271,170.225559 149.586576,170.583525 C149.092881,170.942237 147.330644,172.003458 145.371525,170.59322 L117.273424,150.37261 C112.889831,147.21878 106.999797,147.21878 102.616203,150.37261 L74.5128814,170.596949 C72.5537627,172.006441 70.7907797,170.945966 70.2978305,170.588 C69.8041356,170.229288 68.2507119,168.880949 68.9852881,166.582508 L79.5296271,133.598169 C81.1740339,128.456136 79.3536271,122.855458 75.0013559,119.661356 L47.0941695,99.1864407 C45.1484746,97.7590508 45.612339,95.7544407 45.8010169,95.1749831 C45.9896949,94.5947797 46.7928814,92.7005424 49.2054237,92.6893559 L83.8207458,92.5290169 C86.2914576,92.5170847 88.2856271,90.5050169 88.2744407,88.0335593 C88.2625085,85.5695593 86.2616271,83.5798644 83.7998644,83.5798644 C83.7931525,83.5798644 49.163661,83.7402034 49.163661,83.7402034 C43.6532203,83.7655593 38.9922034,87.1684746 37.2896271,92.4096949 C35.5870508,97.6509153 37.3574915,103.143458 41.8,106.403186 L69.7071864,126.878102 C70.9548475,127.793898 71.4768814,129.399525 71.0055593,130.873898 L60.4619661,163.858237 C58.784,169.106915 60.5805424,174.591254 65.0387119,177.829356 C67.276,179.454373 69.8429153,180.267254 72.411322,180.267254 C74.9610847,180.267254 77.512339,179.465559 79.7414237,177.862169 L107.844,157.637831 C109.10061,156.73322 110.789763,156.73322 112.046373,157.637831 L140.144475,177.858441 C144.617559,181.077153 150.388271,181.06522 154.847186,177.825627 C159.306102,174.58678 161.101898,169.102441 159.423186,163.853017 L148.875119,130.871661 C148.403797,129.397288 148.925085,127.790915 150.173492,126.875864 Z" id="Shape" fill="#383A86"></path>
                    </g>
                </g>
            </g>
        </g>
    </g>
</svg>