<?xml version="1.0" encoding="UTF-8" standalone="no"?>
<svg width="75px" height="75px" viewBox="0 0 75 75" version="1.1" xmlns="http://www.w3.org/2000/svg" xmlns:xlink="http://www.w3.org/1999/xlink" xmlns:sketch="http://www.bohemiancoding.com/sketch/ns">
    <!-- Generator: Sketch 3.4 (15575) - http://www.bohemiancoding.com/sketch -->
    <title>sun</title>
    <desc>Created with Sketch.</desc>
    <defs></defs>
    <g id="Illustration" stroke="none" stroke-width="1" fill="none" fill-rule="evenodd" sketch:type="MSPage">
        <g id="sun" sketch:type="MSLayerGroup">
            <g id="objects" sketch:type="MSShapeGroup">
                <circle id="Oval" fill="#FFD84F" cx="37.41" cy="37.41" r="22.28"></circle>
                <path d="M37.41,15.11 L37.41,59.67 C49.7149042,59.67 59.69,49.6949042 59.69,37.39 C59.69,25.0850958 49.7149042,15.11 37.41,15.11 L37.41,15.11 Z" id="Shape" fill="#FDCB1A"></path>
                <circle id="Oval" fill="#FFD84F" cx="37.41" cy="3.69" r="3.69"></circle>
                <circle id="Oval" fill="#FFD84F" transform="translate(20.543301, 8.202990) rotate(-30.000000) translate(-20.543301, -8.202990) " cx="20.5433005" cy="8.2029905" r="3.69"></circle>
                <circle id="Oval" fill="#FFD84F" transform="translate(8.209744, 20.563453) rotate(-60.000000) translate(-8.209744, -20.563453) " cx="8.20974398" cy="20.563453" r="3.69"></circle>
                <circle id="Oval" fill="#FFD84F" cx="3.69" cy="37.41" r="3.69"></circle>
                <circle id="Oval" fill="#FFD84F" transform="translate(8.197299, 54.244505) rotate(-30.010000) translate(-8.197299, -54.244505) " cx="8.19729897" cy="54.2445051" r="3.69"></circle>
                <circle id="Oval" fill="#FFD84F" transform="translate(20.553874, 66.628039) rotate(-60.000000) translate(-20.553874, -66.628039) " cx="20.5538741" cy="66.6280392" r="3.69"></circle>
                <circle id="Oval" fill="#FFD84F" cx="37.41" cy="71.13" r="3.69"></circle>
                <circle id="Oval" fill="#FFD84F" transform="translate(54.274337, 66.603874) rotate(-30.000000) translate(-54.274337, -66.603874) " cx="54.2743374" cy="66.6038741" r="3.69"></circle>
                <circle id="Oval" fill="#FFD84F" transform="translate(66.607121, 54.258909) rotate(-60.000000) translate(-66.607121, -54.258909) " cx="66.6071206" cy="54.2589091" r="3.69"></circle>
                <circle id="Oval" fill="#FFD84F" cx="71.13" cy="37.41" r="3.69"></circle>
                <circle id="Oval" fill="#FFD84F" transform="translate(66.611091, 20.564744) rotate(-30.000000) translate(-66.611091, -20.564744) " cx="66.6110909" cy="20.564744" r="3.69"></circle>
                <circle id="Oval" fill="#FFD84F" transform="translate(54.277990, 8.215663) rotate(-60.000000) translate(-54.277990, -8.215663) " cx="54.2779905" cy="8.21566262" r="3.69"></circle>
            </g>
        </g>
    </g>
</svg>