<?xml version="1.0" encoding="UTF-8" standalone="no"?>
<svg width="145px" height="191px" viewBox="0 0 145 191" version="1.1" xmlns="http://www.w3.org/2000/svg" xmlns:xlink="http://www.w3.org/1999/xlink" xmlns:sketch="http://www.bohemiancoding.com/sketch/ns">
    <!-- Generator: Sketch 3.4 (15575) - http://www.bohemiancoding.com/sketch -->
    <title>object</title>
    <desc>Created with Sketch.</desc>
    <defs></defs>
    <g id="Illustration" stroke="none" stroke-width="1" fill="none" fill-rule="evenodd" sketch:type="MSPage">
        <g id="34849-NZPVSN" sketch:type="MSLayerGroup" transform="translate(-578.000000, -184.000000)">
            <g id="background" fill="#FFFFFF" sketch:type="MSShapeGroup">
                <rect id="Rectangle-path" x="0" y="0" width="800" height="800"></rect>
            </g>
            <g id="object" transform="translate(33.000000, 160.000000)" sketch:type="MSShapeGroup">
                <g id="Gloover-1" transform="translate(538.000000, 25.000000)">
                    <g id="Group" transform="translate(0.000000, 139.000000)" fill="#EA9878">
                        <path d="M20.3,68.8 L37.3,40.4 L36.8,0.7 C36.8,0.7 -4,49.2 0.7,71.4 C3.2,83.2 11.5,91.5 36.3,107 L39.9,92 L20.3,68.8 L20.3,68.8 Z" id="Shape"></path>
                    </g>
                    <g id="Group" transform="translate(109.000000, 139.000000)" fill="#F7BDA6">
                        <path d="M32.7,69.8 L15.7,40.4 L16.2,0.7 C16.2,0.7 57,50.2 52.3,72.4 C49.8,84.2 41.5,91.5 16.7,107 L13.1,92 L32.7,69.8 L32.7,69.8 Z" id="Shape"></path>
                    </g>
                    <path d="M32.5,54.3 C19.3,75.1 21.9,102.5 59.9,102.7 C61.5,102.7 66.3,101.8 66.8,100.5 C67.5,98.6 56.6,86.6 55.4,84.9 C49.1,76.2 42.8,67.6 36.4,58.9 C35.2,57.3 34,55.6 32.5,54.3 L32.5,54.3 Z" id="Shape" fill="#C09427"></path>
                    <path d="M131.3,51.9 C137.2,57.9 137.2,75.4 134.8,82.8 C132,91.3 125.7,97.8 117.4,101.4 C110.1,104.6 96.7,105.7 94.9,100.5 L131.3,51.9 L131.3,51.9 Z" id="Shape" fill="#CF9E23"></path>
                    <path d="M125.6,137.1 C125.6,137.1 141,148.5 153.4,178.9 L123,188.2 L125.6,137.1 L125.6,137.1 Z" id="Shape" fill="#494DA1"></path>
                    <g id="Group" transform="translate(31.000000, 30.000000)">
                        <g>
                            <g transform="translate(0.000000, 40.000000)" id="Shape">
                                <path d="M17.3,11.6 C19.4,16.1 18,21.1 14.2,22.9 L14.2,22.9 C10.4,24.6 5.7,22.4 3.6,18 L1,12.4 C-1.1,7.9 0.3,2.9 4.1,1.2 L4.1,1.2 C7.9,-0.5 12.6,1.7 14.7,6.1 L17.3,11.6 L17.3,11.6 Z" fill="#DB8165"></path>
                                <path d="M83.2,10.1 C80.7,14.3 81.5,19.5 85,21.6 L85,21.6 C88.6,23.7 93.5,22.1 96,17.9 L99.2,12.6 C101.7,8.4 100.9,3.2 97.4,1.1 L97.4,1.1 C93.9,-1 88.9,0.6 86.4,4.8 L83.2,10.1 L83.2,10.1 Z" fill="#EFA584"></path>
                            </g>
                            <g transform="translate(37.000000, 76.000000)" id="Shape">
                                <path d="M13.1,23.1 L0.1,24.1 L2.2,0.8 L13.1,0.8 L13.1,23.1 Z" fill="#EA9878"></path>
                                <path d="M28.5,23.1 L13.1,23.1 L13.1,0.8 L25.4,0.8 L28.5,23.1 Z" fill="#F7BDA6"></path>
                            </g>
                            <path id="Shape" fill="#FFCA83" d="M91.7,48 L91.7,48 C91.7,48 91.7,48.1 91.7,48 L91.7,48 Z"></path>
                            <g transform="translate(7.000000, 0.000000)" id="Shape">
                                <g>
                                    <path d="M43.1,0.1 L0.6,17.4 C0.6,17.4 -6.4,91.7 43.1,92.2 L43.1,0.1 L43.1,0.1 Z" fill="#EA9878"></path>
                                    <path d="M43.1,0.1 L85.6,19.1 C85.6,19.1 92.8,91.7 43.1,92.2 L43.1,0.1 L43.1,0.1 Z" fill="#F7BDA6"></path>
                                </g>
                                <path d="M37.9,39.7 L37.9,55.7 C37.9,58.5 40.3,60.8 43.1,60.8 C45.9,60.8 49.1,58.5 49.1,55.7 L43.1,39.7 L37.9,39.7 L37.9,39.7 Z" fill="#EA9878"></path>
                            </g>
                            <g transform="translate(33.000000, 69.000000)" id="Shape">
                                <path d="M17.1,3.7 C7.4,3.9 0.3,0.4 0.3,0.4 C0.3,0.4 3.1,12.4 17.1,13.2 L17.1,3.7 L17.1,3.7 Z" fill="#910F0F"></path>
                                <path d="M17.1,3.7 C26.8,3.9 33.4,0.4 33.4,0.4 C33.4,0.4 31.1,12.4 17.1,13.2 L17.1,3.7 L17.1,3.7 Z" fill="#C62424"></path>
                                <path d="M17.1,3.1 C7.2,3.3 0.3,0.4 0.3,0.4 C6.3,6.3 12.2,8 17.1,7.8 C22,8 27.4,6.3 33.4,0.4 C33.4,0.4 26.9,3.3 17.1,3.1 L17.1,3.1 Z" fill="#FFFFFF"></path>
                                <path d="M17.1,3.1 C7.2,3.3 0.3,0.4 0.3,0.4 C6.3,6.3 12.2,8 17.1,7.8 L17.1,3.1 L17.1,3.1 Z" fill="#F7E7E7"></path>
                                <path d="M17.1,3.1 C26.9,3.3 33.4,0.4 33.4,0.4 C27.4,6.3 22,8 17.1,7.8 L17.1,3.1 L17.1,3.1 Z" fill="#FFFFFF"></path>
                            </g>
                            <g transform="translate(91.000000, 48.000000)" id="Shape">
                                <path fill="#68261D" d="M0.7,0 L0.7,0 C0.7,0 0.7,0.1 0.7,0 L0.7,0 Z"></path>
                                <path fill="#7C3832" d="M0.7,0 L0.7,0 C0.7,0 0.7,0.1 0.7,0 L0.7,0 Z"></path>
                            </g>
                            <g transform="translate(15.000000, 51.000000)" id="Oval" fill="#F2714E" opacity="0.4">
                                <circle cx="9" cy="9.7" r="8.8"></circle>
                                <circle cx="60.1" cy="9.7" r="8.8"></circle>
                            </g>
                            <g transform="translate(27.000000, 44.000000)" id="Shape" fill="#1A1A1A">
                                <path d="M7.9,6.1 C7.9,9.3 6.2,11.9 4.2,11.9 C2.1,11.9 0.5,9.3 0.5,6.1 C0.5,2.9 2.2,0.3 4.2,0.3 C6.2,0.4 7.9,2.9 7.9,6.1 L7.9,6.1 Z"></path>
                                <path d="M44.5,6.1 C44.5,9.3 42.8,11.9 40.8,11.9 C38.7,11.9 37.1,9.3 37.1,6.1 C37.1,2.9 38.8,0.3 40.8,0.3 C42.8,0.4 44.5,2.9 44.5,6.1 L44.5,6.1 Z"></path>
                            </g>
                            <g transform="translate(24.000000, 33.000000)" id="Shape">
                                <path d="M0.5,7.5 C0.5,7.5 6.2,3.4 12.9,6.5 C12.9,6.5 12.4,-0.2 6.7,0.3 C1.6,0.8 0.5,7.5 0.5,7.5 L0.5,7.5 Z" fill="#BC530C"></path>
                                <path d="M51.1,7.5 C51.1,7.5 45.4,3.4 38.7,6.5 C38.7,6.5 39.2,-0.2 44.9,0.3 C50,0.8 51.1,7.5 51.1,7.5 L51.1,7.5 Z" fill="#E07024"></path>
                            </g>
                        </g>
                        <g transform="translate(6.000000, 98.000000)" id="Shape">
                            <path d="M10.5,109.2 L44.1,109.2 L44.1,1.1 C0.8,-3.3 0.1,25.4 0.1,25.4 C13.1,52 10.6,103.9 10.5,109.2 L10.5,109.2 Z" fill="#EA9878"></path>
                            <path d="M77.9,109.2 C77.8,103.9 75.3,52 88.2,25.4 C88.2,25.4 87.3,-3.3 44,1.1 L44,109.2 L77.9,109.2 L77.9,109.2 Z" fill="#F7BDA6"></path>
                        </g>
                        <path d="M75.4,100.8 C67.3,112 50.1,111.2 50.1,111.2 C50.1,111.2 32.1,112 24,100.8 L4.6,107.1 C4.6,107.1 7.2,166.6 9.5,207.2 L50.1,207.2 L89.9,207.2 C93.2,168 94.7,107.1 94.7,107.1 L75.4,100.8 L75.4,100.8 Z" id="Shape" fill="#039385"></path>
                        <g transform="translate(4.000000, 100.000000)" id="Shape">
                            <path d="M0.6,7.1 C0.6,7.1 3.2,70.8 5.5,111.3 L46.1,111.3 L46.1,11.2 C46.1,11.2 28.1,12 20,0.8 L0.6,7.1 L0.6,7.1 Z" fill="#494DA1"></path>
                            <path d="M90.6,7.1 C90.6,7.1 89.2,72.1 85.8,111.3 L46,111.3 L46,11.2 C46,11.2 63.2,12 71.3,0.8 L90.6,7.1 L90.6,7.1 Z" fill="#5B60AF"></path>
                        </g>
                    </g>
                    <path d="M35.6,137.1 C35.6,137.1 19.8,148.5 7.5,178.9 L37.9,188.2 L35.6,137.1 L35.6,137.1 Z" id="Shape" fill="#383A86"></path>
                    <path d="M39.2,70.8 C39.9,69 40.4,60.2 49.3,49.8 C49.2,51 59.9,56.5 61.1,56.9 C66,58.5 72.3,59.4 74.4,54.2 C75.2,52.2 75.8,48 74.5,46 C77.8,51 85.5,54.1 91.7,54.9 C97.6,55.6 104.6,53.9 101.5,46.4 C102.8,46.4 112.1,59.2 123.1,55.1 C122.9,55.9 122.3,57 122.3,57.9 C122.4,62.3 121.5,68.2 123.5,72.2 C123.6,72.4 131,64.9 131.5,64.1 C133.8,60.8 135.5,56.9 136.3,53 C137.3,48.3 138.5,32.6 129.8,39.1 C129.5,32.5 131.7,25.1 126.7,20.4 C121.8,15.9 115.1,15.9 114,23.3 C112.8,17.1 111,10.2 106.3,6 C100.1,0.3 86.5,2.4 91.3,13.3 C89.2,8.5 87.1,1.4 80.9,0.8 C74.5,0.1 70.3,7.4 67.3,11.8 C68.6,8.4 66.1,4.5 62.8,3.5 C54.4,0.9 34.5,24 38.7,32.1 C32.4,19.9 25.2,39.6 24.8,45.2 C24.1,53.6 26.7,64.4 34.4,69.8 C36.1,70.9 38.6,72.3 39.2,70.8 L39.2,70.8 Z" id="Shape" fill="#D9A524"></path>
                    <path d="M129.9,39.1 C129.6,32.5 131.8,25.1 126.8,20.4 C121.9,15.9 115.2,15.9 114.1,23.3 C112.9,17.1 111.1,10.2 106.4,6 C100.2,0.3 86.6,2.4 91.4,13.3 C89.3,8.5 87.2,1.4 81,0.8 C80.9,0.8 81.1,0.8 81,0.8 L81,51 C84.5,53.1 87.9,54.4 91.6,54.8 C97.5,55.5 104.5,53.8 101.4,46.3 C102.7,46.3 112,59.1 123,55 C122.8,55.8 122.2,56.9 122.2,57.8 C122.3,62.2 121.4,68.1 123.4,72.1 C123.5,72.3 130.9,64.8 131.4,64 C133.7,60.7 135.4,56.8 136.2,52.9 C137.5,48.3 138.6,32.6 129.9,39.1 L129.9,39.1 Z" id="Shape" fill="#E0B024"></path>
                    <g id="Logo-Copy-2" transform="translate(44.000000, 159.000000)" fill="#FFFFFF">
                        <g id="fashion">
                            <g id="Capa_1">
                                <g id="Group">
                                    <path d="M2.1801362,4.39970517 C1.8926595,4.11077003 1.90171685,3.6493479 2.20030824,3.37112036 C2.50080645,3.09116892 2.97665591,3.10270205 3.26312903,3.39066597 L3.26982796,3.39739161 L3.08150538,1.85071453 C3.03300717,1.45234825 3.32843728,1.09006243 3.73995699,1.04315297 C3.76389247,1.0404093 3.78810394,1.03907388 3.81218996,1.038564 L3.84229749,0.69628512 C3.8598853,0.49640999 3.70668817,0.32057232 3.50015054,0.303551856 C3.29373835,0.286531391 3.11191398,0.434786681 3.09432616,0.634661811 L2.98922581,1.8294693 C2.98270251,1.90352411 2.86824373,1.89895942 2.86824373,1.82449185 L2.86824373,0.363232744 C2.86824373,0.162629206 2.70019355,0 2.49290323,0 C2.2856129,0 2.11756272,0.162629206 2.11756272,0.363232744 L2.11756272,1.80144988 C2.11756272,1.86205342 2.02485663,1.86741935 2.01750538,1.80713146 L1.87532258,0.639542144 C1.85106093,0.440322581 1.66449462,0.297773153 1.45863441,0.321300728 C1.2527491,0.344779743 1.10554839,0.525327784 1.12978495,0.724571627 L1.42285663,3.13157128 C1.43126165,3.20060007 1.34384946,3.24056538 1.29407168,3.19052376 L0.666530466,2.55974679 C0.522767025,2.41525494 0.285168459,2.41086022 0.135835125,2.55001041 C-0.0134982079,2.68913632 -0.0180143369,2.91907041 0.125774194,3.06358654 C1.79797133,4.74441207 1.84503943,4.74402359 1.88769176,4.77022199 C1.77980645,4.789889 1.69816487,4.8814256 1.69816487,4.99153659 L1.69816487,5.5799445 C1.69816487,5.70440513 1.80243728,5.80531391 1.93104659,5.80531391 L3.57853047,5.80531391 C3.4372509,5.66329865 2.33120072,4.55152966 2.1801362,4.39970517 L2.1801362,4.39970517 Z" id="Shape"></path>
                                    <path d="M6.58248387,4.49337843 L6.99031541,2.56015956 C7.02802509,2.38133541 6.90882437,2.2067846 6.72401434,2.17026708 C6.53935484,2.13396809 6.35886022,2.24917794 6.32112545,2.4279778 L6.1585448,3.19868193 C6.14391756,3.2679778 6.03829032,3.25212279 6.04441219,3.18275408 L6.16782796,1.77979188 C6.18541577,1.57991675 6.03221864,1.40407908 5.825681,1.38705862 C5.61919355,1.37003815 5.43744444,1.51831772 5.41985663,1.71816857 L5.31475627,2.91297607 C5.30815771,2.98780784 5.19377419,2.98246618 5.19377419,2.90799861 L5.19377419,1.44676379 C5.19377419,1.24616025 5.02572401,1.08353104 4.81843369,1.08353104 C4.61114337,1.08353104 4.44309319,1.24616025 4.44309319,1.44676379 L4.44309319,2.88498092 C4.44309319,2.94568158 4.35043728,2.95146028 4.34303584,2.8906625 L4.20087814,1.72307319 C4.17661649,1.52390219 3.99007527,1.3813042 3.78416487,1.40483177 C3.57830466,1.42831079 3.43107885,1.60885883 3.4553405,1.80810267 L3.74841219,4.21510232 C3.75686738,4.28456816 3.66907885,4.3237565 3.61962724,4.2740548 L2.99208602,3.64327784 C2.84834767,3.49881027 2.6107491,3.49436698 2.46139068,3.63351717 C2.31205735,3.77266736 2.30754122,4.00260146 2.45132975,4.14709331 C2.45132975,4.14709331 4.17056989,5.82753035 4.21322222,5.85372875 C4.10536201,5.87342005 4.02372043,5.96493236 4.02372043,6.07504336 L4.02372043,6.66345127 C4.02372043,6.7879119 4.12799283,6.88882067 4.25660215,6.88882067 L6.46922939,6.88882067 C6.59783871,6.88882067 6.70211111,6.7879119 6.70211111,6.66345127 L6.70211111,6.07504336 C6.70211111,5.96430108 6.61951613,5.87242456 6.5107276,5.85343739 C6.55571326,5.79353798 6.58255914,5.7200659 6.58255914,5.6403538 L6.58255914,4.49337843 L6.58248387,4.49337843 Z M6.11320789,6.6117343 C5.97002151,6.6117343 5.85395699,6.49941381 5.85395699,6.36084634 C5.85395699,6.22227888 5.97002151,6.10995838 6.11320789,6.10995838 C6.25639427,6.10995838 6.37245878,6.22227888 6.37245878,6.36084634 C6.37245878,6.49941381 6.25636918,6.6117343 6.11320789,6.6117343 L6.11320789,6.6117343 Z" id="Shape"></path>
                                </g>
                            </g>
                        </g>
                        <path d="M12.1512821,3.43717949 L11.9628205,3.52692308 L11.4871795,3.94871795 L11.2089744,4.07435897 L10.9666667,4.11923077 L10.6705128,4.11923077 L10.4730769,4.14615385 L10.2576923,4.21794872 L10.2128205,4.34358974 L10.2217949,4.49615385 L10.2846154,4.62179487 L10.4730769,4.72051282 L10.6794872,4.76538462 L10.8141026,4.7474359 L10.9487179,4.72051282 L11.1012821,4.77435897 L11.1641026,4.92692308 L11.1730769,5.07051282 L11.1282051,5.22307692 L11.1192308,5.36666667 L11.0923077,5.50128205 L10.9217949,5.92307692 L10.8230769,6.03974359 L10.6076923,6.23717949 L10.4820513,6.31794872 L10.2217949,6.39871795 L10.0064103,6.43461538 L9.62948718,6.39871795 L9.36025641,6.31794872 L9.12692308,6.16538462 L8.91153846,5.95897436 L8.82179487,5.85128205 L8.69615385,5.59102564 L8.61538462,5.46538462 L8.56153846,5.31282051 L8.49871795,4.9 L8.48076923,4.73846154 L8.45384615,4.61282051 L8.45384615,4.46025641 L8.49871795,4.02051282 L8.63333333,3.43717949 L8.64230769,3.31153846 L8.68717949,3.15 L8.79487179,2.88076923 L9.15384615,2.23461538 L9.33333333,1.99230769 L9.45,1.88461538 L9.53076923,1.78589744 L9.86282051,1.52564103 L9.9974359,1.44487179 L10.1320513,1.39102564 L10.3205128,1.33717949 L10.625641,1.31923077 L10.8320513,1.36410256 L10.9576923,1.42692308 L11.0564103,1.51666667 L11.1012821,1.65128205 L11.1371795,1.78589744 L11.1371795,1.92948718 L11.0833333,2.21666667 L10.9397436,2.56666667 L10.9307692,2.77307692 L11.0294872,2.87179487 L11.1551282,2.93461538 L11.2897436,2.9525641 L11.4602564,2.84487179 L11.5948718,2.68333333 L11.6576923,2.55769231 L11.8282051,1.99230769 L11.8551282,1.69615385 L11.8192308,1.56153846 L11.8102564,1.42692308 L11.6935897,1.14871795 L11.5948718,1.05 L11.5230769,0.942307692 L11.4153846,0.843589744 L11.2807692,0.780769231 L11.1371795,0.726923077 L10.6346154,0.637179487 L10.275641,0.664102564 L10.0602564,0.7 L9.71923077,0.825641026 L9.35128205,1.02307692 L9.2525641,1.11282051 L9.12692308,1.2025641 L8.91153846,1.4 L8.71410256,1.61538462 L8.63333333,1.73205128 L8.54358974,1.83974359 L8.25641026,2.33333333 L8.06794872,2.73717949 L7.97820513,3.01538462 L7.87051282,3.28461538 L7.8525641,3.43717949 L7.80769231,3.57179487 L7.73589744,3.99358974 L7.75384615,4.14615385 L7.72692308,4.43333333 L7.7,4.58589744 L7.70897436,4.72948718 L7.70897436,4.87307692 L7.77179487,5.30384615 L7.81666667,5.43846154 L7.84358974,5.58205128 L7.90641026,5.70769231 L7.93333333,5.85128205 L8.00512821,5.98589744 L8.31923077,6.4525641 L8.42692308,6.55128205 L8.51666667,6.65 L8.62435897,6.73974359 L9.00128205,6.94615385 L9.27948718,7.04487179 L9.41410256,7.08076923 L9.91666667,7.12564103 L10.275641,7.10769231 L10.8410256,6.93717949 L11.0564103,6.77564103 L11.2,6.69487179 L11.3974359,6.48846154 L11.6128205,6.12948718 L11.7025641,5.85128205 L11.774359,5.70769231 L11.8461538,5.27692308 L11.8371795,5.13333333 L11.8641026,4.98076923 L11.8641026,4.83717949 L11.8371795,4.69358974 L11.9179487,4.51410256 L12.0346154,4.3525641 L12.3487179,4.02051282 L12.4384615,3.83205128 L12.474359,3.63461538 L12.375641,3.51794872 L12.2769231,3.45512821 L12.1512821,3.43717949 Z M13.2487179,7.03589744 L13.6884615,7 L13.9576923,6.91025641 L14.2089743,6.75769231 L14.3076923,6.67692308 L14.5948717,6.35384615 L14.7564102,6.11153846 L14.8820512,5.85128205 L14.9628205,5.73461538 L15.1423076,5.28589744 L15.151282,5.0974359 L15.0794871,4.99871795 L14.9628205,4.93589744 L14.8282051,4.93589744 L14.6935897,5.0525641 L14.1820512,5.88717949 L13.8858974,6.18333333 L13.6346153,6.31794872 L13.4371794,6.34487179 L13.2307692,6.31794872 L13.0871794,6.26410256 L12.9705128,6.17435897 L12.8358974,5.94102564 L12.7102564,5.66282051 L12.6743589,5.52820513 L12.6474358,5.39358974 L12.6743589,5.16923077 L12.7282051,4.97179487 L13.401282,3.59871795 L13.4551282,3.46410256 L13.5358974,3.31153846 L13.9128205,2.13589744 L13.9397435,2.00128205 L13.9487179,1.83974359 L13.9846153,1.69615385 L13.9935897,1.56153846 L13.9666666,1.15769231 L13.9038461,0.978205128 L13.8051282,0.816666667 L13.7243589,0.735897436 L13.5179487,0.619230769 L13.3294871,0.601282051 L13.0602564,0.61025641 L12.8628205,0.673076923 L12.7282051,0.726923077 L12.4051282,1.02307692 L12.1358974,1.52564103 L12.0461538,1.79487179 L11.9743589,2.20769231 L11.9294871,2.36025641 L11.9115384,2.63846154 L11.875641,2.77307692 L11.8397435,3.86794872 L11.8846153,4.23589744 L11.8666666,4.38846154 L11.9115384,4.66666667 L11.9025641,4.83717949 L11.9115384,4.97179487 L11.9474358,5.12435897 L11.9653846,5.42051282 L12.001282,5.56410256 L12.0192307,5.71666667 L12.2076923,6.25512821 L12.2705128,6.39871795 L12.3423076,6.4974359 L12.6115384,6.81153846 L12.8448717,6.93717949 L13.051282,7 L13.2487179,7.03589744 Z M12.6115384,3.77820513 L12.5487179,3.83205128 L12.5128205,3.76025641 L12.5128205,3.3025641 L12.5307692,3.15 L12.5307692,3.00641026 L12.5846153,2.54871795 L12.6205128,2.40512821 L12.6205128,2.2525641 L12.701282,1.96538462 L12.7551282,1.82179487 L12.7910256,1.67820513 L12.8448717,1.56153846 L12.925641,1.44487179 L13.0153846,1.34615385 L13.1679487,1.33717949 L13.3115384,1.44487179 L13.2935897,1.72307692 L13.15,2.42307692 L13.0243589,2.70128205 L12.9525641,2.97051282 L12.6115384,3.77820513 Z M14.552564,7.00897436 L14.7051281,7.01794872 L14.9923076,7 L15.2794871,6.91025641 L15.4320512,6.83846154 L15.5217948,6.78461538 L15.602564,6.72179487 L15.7551281,6.66794872 L15.8897435,6.66794872 L16.1141025,6.73076923 L16.3923076,6.74871795 L16.6435896,6.71282051 L16.9128204,6.59615385 L17.101282,6.44358974 L17.3974358,6.08461538 L17.5320512,5.88717949 L17.6935896,5.56410256 L17.801282,5.28589744 L17.8371794,5.12435897 L17.7743589,5.02564103 L17.6756409,4.94487179 L17.5589743,4.92692308 L17.451282,4.92692308 L17.3435896,5.02564103 L17.2628204,5.18717949 L17.1910255,5.28589744 L17.1461538,5.39358974 L17.0743589,5.50128205 L17.0294871,5.6 L16.9666666,5.70769231 L16.8679486,5.80641026 L16.8141025,5.89615385 L16.7333332,5.96794872 L16.5897435,6.05769231 L16.401282,6.12051282 L16.3115384,6.07564103 L16.3115384,5.95897436 L16.4371794,5.62692308 L16.4910255,5.39358974 L16.526923,5.25897436 L16.5628204,4.90897436 L16.5987179,4.78333333 L16.4910255,4.19102564 L16.401282,3.96666667 L16.3474358,3.86794872 L16.2756409,3.76923077 L16.0333332,3.52692308 L15.8179486,3.41025641 L15.4679486,3.32948718 L14.9743589,3.32948718 L14.7589743,3.38333333 L14.426923,3.51794872 L14.2833332,3.61666667 L14.1487179,3.72435897 L14.0051281,3.91282051 L13.9064102,3.99358974 L13.6371794,4.51410256 L13.6192307,4.62179487 L13.5294871,4.85512821 L13.5294871,4.97179487 L13.4397435,5.43846154 L13.4487179,5.56410256 L13.4397435,5.68076923 L13.4666666,5.78846154 L13.4756409,5.91410256 L13.502564,6.03076923 L13.6999999,6.4525641 L13.8256409,6.65 L14.0858973,6.86538462 L14.4358973,6.99102564 L14.552564,7.00897436 Z M14.9653845,6.30897436 L14.7948717,6.31794872 L14.6243589,6.30897436 L14.5166666,6.26410256 L14.4179486,6.21025641 L14.3192307,6.12051282 L14.2294871,5.93205128 L14.1756409,5.69871795 L14.1666666,5.59102564 L14.2115384,5.13333333 L14.2653845,5.01666667 L14.2833332,4.90897436 L14.3371794,4.79230769 L14.3641025,4.68461538 L14.4089743,4.56794872 L14.4717948,4.47820513 L14.5435896,4.37948718 L14.6064102,4.28076923 L14.8487179,4.07435897 L14.9474358,4.02948718 L15.2435896,4.0025641 L15.4230768,4.01153846 L15.5217948,4.05641026 L15.6115384,4.11923077 L15.6923076,4.20897436 L15.7551281,4.29871795 L15.8089743,4.40641026 L15.8358973,4.53205128 L15.8448717,4.88205128 L15.7999999,5.23205128 L15.728205,5.45641026 L15.6294871,5.57307692 L15.3871794,5.71666667 L15.3243589,5.81538462 L15.2794871,5.92307692 L15.2615384,6.09358974 L15.1717948,6.21923077 L14.9653845,6.30897436 Z M18.2846153,7.00897436 L18.4371794,7.01794872 L18.7243589,7 L19.0115384,6.91025641 L19.1641025,6.83846154 L19.2538461,6.78461538 L19.3346153,6.72179487 L19.4871794,6.66794872 L19.6217948,6.66794872 L19.8461537,6.73076923 L20.1243589,6.74871795 L20.3756409,6.71282051 L20.6448717,6.59615385 L20.8333332,6.44358974 L21.1294871,6.08461538 L21.2641025,5.88717949 L21.4256409,5.56410256 L21.5333332,5.28589744 L21.5692307,5.12435897 L21.5064102,5.02564103 L21.4076922,4.94487179 L21.2910255,4.92692308 L21.1833332,4.92692308 L21.0756409,5.02564103 L20.9948717,5.18717949 L20.9230768,5.28589744 L20.878205,5.39358974 L20.8064102,5.50128205 L20.7615384,5.6 L20.6987179,5.70769231 L20.5999999,5.80641026 L20.5461537,5.89615385 L20.4653845,5.96794872 L20.3217948,6.05769231 L20.1333332,6.12051282 L20.0435896,6.07564103 L20.0435896,5.95897436 L20.1692307,5.62692308 L20.2230768,5.39358974 L20.2589743,5.25897436 L20.2948717,4.90897436 L20.3307691,4.78333333 L20.2230768,4.19102564 L20.1333332,3.96666667 L20.0794871,3.86794872 L20.0076922,3.76923077 L19.7653845,3.52692308 L19.5499999,3.41025641 L19.1999999,3.32948718 L18.7064102,3.32948718 L18.4910255,3.38333333 L18.1589743,3.51794872 L18.0153845,3.61666667 L17.8807691,3.72435897 L17.7371794,3.91282051 L17.6384614,3.99358974 L17.3692307,4.51410256 L17.351282,4.62179487 L17.2615384,4.85512821 L17.2615384,4.97179487 L17.1717948,5.43846154 L17.1807691,5.56410256 L17.1717948,5.68076923 L17.1987179,5.78846154 L17.2076922,5.91410256 L17.2346153,6.03076923 L17.4320512,6.4525641 L17.5576922,6.65 L17.8179486,6.86538462 L18.1679486,6.99102564 L18.2846153,7.00897436 Z M18.6974358,6.30897436 L18.526923,6.31794872 L18.3564102,6.30897436 L18.2487179,6.26410256 L18.1499999,6.21025641 L18.051282,6.12051282 L17.9615384,5.93205128 L17.9076922,5.69871795 L17.8987179,5.59102564 L17.9435896,5.13333333 L17.9974358,5.01666667 L18.0153845,4.90897436 L18.0692307,4.79230769 L18.0961537,4.68461538 L18.1410255,4.56794872 L18.2038461,4.47820513 L18.2756409,4.37948718 L18.3384614,4.28076923 L18.5807691,4.07435897 L18.6794871,4.02948718 L18.9756409,4.0025641 L19.1551281,4.01153846 L19.2538461,4.05641026 L19.3435896,4.11923077 L19.4243589,4.20897436 L19.4871794,4.29871795 L19.5410255,4.40641026 L19.5679486,4.53205128 L19.576923,4.88205128 L19.5320512,5.23205128 L19.4602563,5.45641026 L19.3615384,5.57307692 L19.1192307,5.71666667 L19.0564102,5.81538462 L19.0115384,5.92307692 L18.9935896,6.09358974 L18.9038461,6.21923077 L18.6974358,6.30897436 Z M21.8820512,7.00897436 L22.3128204,6.98205128 L22.6897435,6.81153846 L22.8692307,6.77564103 L23.0666666,6.78461538 L23.3538461,6.8474359 L23.7846153,6.8025641 L23.9371794,6.75769231 L24.1705127,6.63205128 L24.502564,6.34487179 L24.601282,6.21923077 L24.6551281,6.11153846 L24.7538461,5.99487179 L24.8435896,5.86025641 L25.0948717,5.29487179 L25.1128204,5.08846154 L25.0230768,4.99871795 L24.9064102,4.94487179 L24.7807691,4.91794872 L24.6371794,5.0525641 L24.5115384,5.23205128 L24.251282,5.76153846 L24.1435896,5.86923077 L24.0538461,5.98589744 L23.8294871,6.16538462 L23.6230768,6.21025641 L23.4346153,6.16538462 L23.4256409,6.02179487 L23.5692307,5.77948718 L23.6948717,5.49230769 L23.8294871,5.07948718 L23.9102563,4.49615385 L23.9192307,4.06538462 L23.8923076,3.92179487 L23.8833332,3.77820513 L23.8384614,3.64358974 L23.7487179,3.43717949 L23.6141025,3.3025641 L23.4794871,3.29358974 L23.3538461,3.32051282 L23.228205,3.40128205 L23.1653845,3.5 L23.1474358,3.68846154 L23.201282,3.88589744 L23.201282,4.46923077 L23.0666666,5.01666667 L22.9141025,5.42051282 L22.7884614,5.55512821 L22.626923,5.65384615 L22.5192307,5.73461538 L22.3397435,6.15641026 L22.1423076,6.29102564 L21.9089743,6.3 L21.7923076,6.21923077 L21.6756409,6.12051282 L21.6307691,5.90512821 L21.6038461,5.67179487 L21.8461537,3.85897436 L21.828205,3.72435897 L21.7833332,3.52692308 L21.6756409,3.35641026 L21.5499999,3.31153846 L21.4243589,3.3025641 L21.2897435,3.3474359 L21.1910255,3.41025641 L21.1192307,3.60769231 L21.1192307,3.81410256 L21.101282,3.95769231 L21.0923076,4.23589744 L20.9756409,4.78333333 L20.9487179,5.07948718 L20.8948717,5.35769231 L20.8948717,5.86923077 L20.9487179,6.21923077 L21.1641025,6.60512821 L21.2448717,6.71282051 L21.352564,6.81153846 L21.478205,6.88333333 L21.7294871,6.98205128 L21.8820512,7.00897436 Z M26.126923,7.08076923 L26.2884614,7.08974359 L26.6923076,7.05384615 L26.9166666,7.00897436 L27.2397435,6.90128205 L27.6615384,6.67692308 L28.0653845,6.25512821 L28.1192307,6.1474359 L28.1999999,6.05769231 L28.3794871,5.7525641 L28.4333332,5.63589744 L28.4692307,5.52820513 L28.5230768,5.42948718 L28.5858973,5.11538462 L28.5230768,5.02564103 L28.4243589,4.96282051 L28.3256409,4.92692308 L28.2089743,4.92692308 L28.1192307,5.04358974 L27.7871794,5.59102564 L27.5717948,5.87820513 L27.2935896,6.11153846 L27.1051281,6.21923077 L26.7730768,6.33589744 L26.602564,6.37179487 L26.1987179,6.38076923 L25.9833332,6.32692308 L25.8756409,6.28205128 L25.776923,6.22820513 L25.6961537,6.13846154 L25.6064102,6.06666667 L25.5615384,5.96794872 L25.4897435,5.88717949 L25.426923,5.77051282 L25.3999999,5.66282051 L25.3820512,5.55512821 L25.426923,5.46538462 L25.5166666,5.4474359 L25.7499999,5.53717949 L25.9833332,5.57307692 L26.3423076,5.56410256 L26.4410255,5.54615385 L26.7730768,5.42948718 L26.9705127,5.30384615 L27.1499999,5.13333333 L27.2128204,5.04358974 L27.2935896,4.95384615 L27.3474358,4.85512821 L27.401282,4.68461538 L27.4461537,4.45128205 L27.4641025,4.16410256 L27.3923076,3.93076923 L27.3205127,3.76923077 L27.2217948,3.62564103 L27.1320512,3.54487179 L26.9256409,3.41923077 L26.7551281,3.35641026 L26.5576922,3.31153846 L26.4051281,3.3025641 L25.9743589,3.32948718 L25.7410255,3.40128205 L25.651282,3.45512821 L25.552564,3.5 L25.3551281,3.62564103 L25.1756409,3.77820513 L25.0051281,3.96666667 L24.9423076,4.05641026 L24.8435896,4.28076923 L24.7897435,4.37948718 L24.7538461,4.49615385 L24.6999999,4.59487179 L24.6910255,4.72051282 L24.6102563,5.0525641 L24.628205,5.17820513 L24.601282,5.35769231 L24.6371794,5.53717949 L24.6371794,5.64487179 L24.7448717,6.09358974 L24.8256409,6.20128205 L24.852564,6.31794872 L25.0589743,6.59615385 L25.1487179,6.68589744 L25.426923,6.88333333 L25.552564,6.92820513 L25.6423076,6.97307692 L25.7589743,7.01794872 L25.9833332,7.06282051 L26.126923,7.08076923 Z M25.5705127,4.89102564 L25.5076922,4.80128205 L25.4897435,4.66666667 L25.5256409,4.55 L25.5794871,4.45128205 L25.6423076,4.34358974 L25.776923,4.16410256 L26.001282,4.03846154 L26.0910255,4.0025641 L26.2705127,3.96666667 L26.4230768,3.95769231 L26.6384614,4.05641026 L26.6923076,4.13717949 L26.7371794,4.23589744 L26.7461537,4.40641026 L26.728205,4.59487179 L26.5935896,4.78333333 L26.4948717,4.86410256 L26.3961537,4.91794872 L26.2974358,4.95384615 L26.0461537,4.98076923 L25.6871794,4.92692308 L25.5705127,4.89102564 Z" id="Gloove"></path>
                    </g>
                </g>
            </g>
        </g>
    </g>
</svg>