<?xml version="1.0" encoding="UTF-8" standalone="no"?>
<svg width="162px" height="433px" viewBox="0 0 162 433" version="1.1" xmlns="http://www.w3.org/2000/svg" xmlns:xlink="http://www.w3.org/1999/xlink" xmlns:sketch="http://www.bohemiancoding.com/sketch/ns">
    <!-- Generator: Sketch 3.4 (15575) - http://www.bohemiancoding.com/sketch -->
    <title>Gloover-1</title>
    <desc>Created with Sketch.</desc>
    <defs></defs>
    <g id="Illustration" stroke="none" stroke-width="1" fill="none" fill-rule="evenodd" sketch:type="MSPage">
        <g id="34849-NZPVSN" sketch:type="MSLayerGroup" transform="translate(-571.000000, -185.000000)">
            <g id="object" transform="translate(22.000000, 184.000000)" sketch:type="MSShapeGroup">
                <g id="Gloover-1" transform="translate(549.000000, 1.000000)">
                    <g id="Group" transform="translate(0.000000, 139.000000)" fill="#EA9878">
                        <path d="M39.9,92 L36.3,107 C36.3,107 25.5,131.3 46.1,138 L52.3,92.6 L39.9,92 L39.9,92 Z" id="Shape"></path>
                        <path d="M20.3,68.8 L37.3,40.4 L36.8,0.7 C36.8,0.7 -4,49.2 0.7,71.4 C3.2,83.2 11.5,91.5 36.3,107 L39.9,92 L20.3,68.8 L20.3,68.8 Z" id="Shape"></path>
                    </g>
                    <g id="Group" transform="translate(109.000000, 139.000000)" fill="#F7BDA6">
                        <path d="M13.1,92 L16.7,107 C16.7,107 27.5,131.3 6.9,138 L0.7,92.6 L13.1,92 L13.1,92 Z" id="Shape"></path>
                        <path d="M32.7,69.8 L15.7,40.4 L16.2,0.7 C16.2,0.7 57,50.2 52.3,72.4 C49.8,84.2 41.5,91.5 16.7,107 L13.1,92 L32.7,69.8 L32.7,69.8 Z" id="Shape"></path>
                    </g>
                    <path d="M32.5,54.3 C19.3,75.1 21.9,102.5 59.9,102.7 C61.5,102.7 66.3,101.8 66.8,100.5 C67.5,98.6 56.6,86.6 55.4,84.9 C49.1,76.2 42.8,67.6 36.4,58.9 C35.2,57.3 34,55.6 32.5,54.3 L32.5,54.3 Z" id="Shape" fill="#C09427"></path>
                    <path d="M131.3,51.9 C137.2,57.9 137.2,75.4 134.8,82.8 C132,91.3 125.7,97.8 117.4,101.4 C110.1,104.6 96.7,105.7 94.9,100.5 L131.3,51.9 L131.3,51.9 Z" id="Shape" fill="#CF9E23"></path>
                    <path d="M125.6,137.1 C125.6,137.1 141,148.5 153.4,178.9 L123,188.2 L125.6,137.1 L125.6,137.1 Z" id="Shape" fill="#494DA1"></path>
                    <g id="Group" transform="translate(31.000000, 30.000000)">
                        <path d="M58.4,277.1 C61.4,298.1 64.1,348.3 66.9,383.8 L87.7,383.8 L86,277.1 L58.4,277.1 L58.4,277.1 Z" id="Shape" fill="#E09B7E"></path>
                        <path d="M12.8,275.5 C15.8,296.5 13.3,346.7 16.2,382.2 L37,382.2 L40.4,275.5 L12.8,275.5 L12.8,275.5 Z" id="Shape" fill="#E09B7E"></path>
                        <path d="M89.5,209.7 C89.5,209 89.5,208.4 89.4,207.8 L89.4,207.7 L86.8,203.8 L50,203.8 L12.3,204 L9.2,207.8 C9.2,207.6 9.2,207.5 9.2,207.9 L9.2,208.2 C8.5,231.1 9,333.4 12.2,372.8 L39.4,372.8 L47.4,249.1 C48.4,249.3 49.2,249.4 50.1,249.4 C50.8,249.4 51.7,249.3 52.5,249.2 L61.5,372.8 L90.7,372.8 C93.7,334.2 90.4,232.5 89.5,209.7 L89.5,209.7 Z" id="Shape" fill="#5093D6"></path>
                        <g transform="translate(9.000000, 207.000000)" id="Shape">
                            <path d="M0.2,0.8 C0.2,1.8 0.3,-0.1 0.2,0.8 C-1.2,16.6 25.8,42 41,42.3 L41,0.1 L0.2,0.8 L0.2,0.8 Z" fill="#232F32"></path>
                            <path d="M41.1,0 L41.1,42.2 C56.3,42 82.3,16.6 80.5,0.8 C80.4,0 41.1,0 41.1,0 Z" fill="#2E393E"></path>
                        </g>
                        <path d="M9.2,207.8 C8.4,232.3 9.1,334.7 12.2,372.7 L39.4,372.7 L47.4,248.6 L17.8,206.8 L9.2,207.8 L9.2,207.8 Z" id="Shape" fill="#272727"></path>
                        <path d="M83,206.7 L52.4,248.5 L61.5,372.6 L90.7,372.6 C93.8,333.1 90.2,230.7 89.5,207.7 L83,206.7 L83,206.7 Z" id="Shape" fill="#3A3A3A"></path>
                        <g transform="translate(9.000000, 203.000000)" id="Shape">
                            <path d="M41.1,4.7 L0.2,4.8 L3.4,1 L41.1,0.8 L41.1,4.7 Z" fill="#42210B"></path>
                            <path d="M80.5,4.8 L41.1,4.7 L41.1,0.8 L77.9,0.8 L80.5,4.8 Z" fill="#603813"></path>
                        </g>
                        <rect id="Rectangle-path" fill="#5D5D5D" x="10.5" y="364.6" width="30.5" height="10.3"></rect>
                        <rect id="Rectangle-path" fill="#737474" x="59.5" y="364.6" width="33.5" height="10.3"></rect>
                        <g>
                            <g transform="translate(0.000000, 40.000000)" id="Shape">
                                <path d="M17.3,11.6 C19.4,16.1 18,21.1 14.2,22.9 L14.2,22.9 C10.4,24.6 5.7,22.4 3.6,18 L1,12.4 C-1.1,7.9 0.3,2.9 4.1,1.2 L4.1,1.2 C7.9,-0.5 12.6,1.7 14.7,6.1 L17.3,11.6 L17.3,11.6 Z" fill="#DB8165"></path>
                                <path d="M83.2,10.1 C80.7,14.3 81.5,19.5 85,21.6 L85,21.6 C88.6,23.7 93.5,22.1 96,17.9 L99.2,12.6 C101.7,8.4 100.9,3.2 97.4,1.1 L97.4,1.1 C93.9,-1 88.9,0.6 86.4,4.8 L83.2,10.1 L83.2,10.1 Z" fill="#EFA584"></path>
                            </g>
                            <g transform="translate(37.000000, 76.000000)" id="Shape">
                                <path d="M13.1,23.1 L0.1,24.1 L2.2,0.8 L13.1,0.8 L13.1,23.1 Z" fill="#EA9878"></path>
                                <path d="M28.5,23.1 L13.1,23.1 L13.1,0.8 L25.4,0.8 L28.5,23.1 Z" fill="#F7BDA6"></path>
                            </g>
                            <path id="Shape" fill="#FFCA83" d="M91.7,48 L91.7,48 C91.7,48 91.7,48.1 91.7,48 L91.7,48 Z"></path>
                            <g transform="translate(7.000000, 0.000000)" id="Shape">
                                <g>
                                    <path d="M43.1,0.1 L0.6,17.4 C0.6,17.4 -6.4,91.7 43.1,92.2 L43.1,0.1 L43.1,0.1 Z" fill="#EA9878"></path>
                                    <path d="M43.1,0.1 L85.6,19.1 C85.6,19.1 92.8,91.7 43.1,92.2 L43.1,0.1 L43.1,0.1 Z" fill="#F7BDA6"></path>
                                </g>
                                <path d="M37.9,39.7 L37.9,55.7 C37.9,58.5 40.3,60.8 43.1,60.8 C45.9,60.8 49.1,58.5 49.1,55.7 L43.1,39.7 L37.9,39.7 L37.9,39.7 Z" fill="#EA9878"></path>
                            </g>
                            <g transform="translate(33.000000, 69.000000)" id="Shape">
                                <path d="M17.1,3.7 C7.4,3.9 0.3,0.4 0.3,0.4 C0.3,0.4 3.1,12.4 17.1,13.2 L17.1,3.7 L17.1,3.7 Z" fill="#910F0F"></path>
                                <path d="M17.1,3.7 C26.8,3.9 33.4,0.4 33.4,0.4 C33.4,0.4 31.1,12.4 17.1,13.2 L17.1,3.7 L17.1,3.7 Z" fill="#C62424"></path>
                                <path d="M17.1,3.1 C7.2,3.3 0.3,0.4 0.3,0.4 C6.3,6.3 12.2,8 17.1,7.8 C22,8 27.4,6.3 33.4,0.4 C33.4,0.4 26.9,3.3 17.1,3.1 L17.1,3.1 Z" fill="#FFFFFF"></path>
                                <path d="M17.1,3.1 C7.2,3.3 0.3,0.4 0.3,0.4 C6.3,6.3 12.2,8 17.1,7.8 L17.1,3.1 L17.1,3.1 Z" fill="#F7E7E7"></path>
                                <path d="M17.1,3.1 C26.9,3.3 33.4,0.4 33.4,0.4 C27.4,6.3 22,8 17.1,7.8 L17.1,3.1 L17.1,3.1 Z" fill="#FFFFFF"></path>
                            </g>
                            <g transform="translate(91.000000, 48.000000)" id="Shape">
                                <path fill="#68261D" d="M0.7,0 L0.7,0 C0.7,0 0.7,0.1 0.7,0 L0.7,0 Z"></path>
                                <path fill="#7C3832" d="M0.7,0 L0.7,0 C0.7,0 0.7,0.1 0.7,0 L0.7,0 Z"></path>
                            </g>
                            <g transform="translate(15.000000, 51.000000)" id="Oval" fill="#F2714E" opacity="0.4">
                                <circle cx="9" cy="9.7" r="8.8"></circle>
                                <circle cx="60.1" cy="9.7" r="8.8"></circle>
                            </g>
                            <g transform="translate(27.000000, 44.000000)" id="Shape" fill="#1A1A1A">
                                <path d="M7.9,6.1 C7.9,9.3 6.2,11.9 4.2,11.9 C2.1,11.9 0.5,9.3 0.5,6.1 C0.5,2.9 2.2,0.3 4.2,0.3 C6.2,0.4 7.9,2.9 7.9,6.1 L7.9,6.1 Z"></path>
                                <path d="M44.5,6.1 C44.5,9.3 42.8,11.9 40.8,11.9 C38.7,11.9 37.1,9.3 37.1,6.1 C37.1,2.9 38.8,0.3 40.8,0.3 C42.8,0.4 44.5,2.9 44.5,6.1 L44.5,6.1 Z"></path>
                            </g>
                            <g transform="translate(24.000000, 33.000000)" id="Shape">
                                <path d="M0.5,7.5 C0.5,7.5 6.2,3.4 12.9,6.5 C12.9,6.5 12.4,-0.2 6.7,0.3 C1.6,0.8 0.5,7.5 0.5,7.5 L0.5,7.5 Z" fill="#BC530C"></path>
                                <path d="M51.1,7.5 C51.1,7.5 45.4,3.4 38.7,6.5 C38.7,6.5 39.2,-0.2 44.9,0.3 C50,0.8 51.1,7.5 51.1,7.5 L51.1,7.5 Z" fill="#E07024"></path>
                            </g>
                        </g>
                        <g transform="translate(6.000000, 98.000000)" id="Shape">
                            <path d="M10.5,109.2 L44.1,109.2 L44.1,1.1 C0.8,-3.3 0.1,25.4 0.1,25.4 C13.1,52 10.6,103.9 10.5,109.2 L10.5,109.2 Z" fill="#EA9878"></path>
                            <path d="M77.9,109.2 C77.8,103.9 75.3,52 88.2,25.4 C88.2,25.4 87.3,-3.3 44,1.1 L44,109.2 L77.9,109.2 L77.9,109.2 Z" fill="#F7BDA6"></path>
                        </g>
                        <path d="M75.4,100.8 C67.3,112 50.1,111.2 50.1,111.2 C50.1,111.2 32.1,112 24,100.8 L4.6,107.1 C4.6,107.1 7.2,166.6 9.5,207.2 L50.1,207.2 L89.9,207.2 C93.2,168 94.7,107.1 94.7,107.1 L75.4,100.8 L75.4,100.8 Z" id="Shape" fill="#039385"></path>
                        <g transform="translate(7.000000, 377.000000)">
                            <path d="M0.2,20.7 L36.7,20.7 C36.7,20.7 39.5,1.3 20.2,0.7 C-1.8,1.45994328e-13 0.2,20.7 0.2,20.7 L0.2,20.7 Z" id="Shape" fill="#00A99D"></path>
                            <rect id="Rectangle-path" fill="#603813" x="0.3" y="20.3" width="36.5" height="5.5"></rect>
                        </g>
                        <g transform="translate(58.000000, 377.000000)">
                            <path d="M0.8,20.7 L37.3,20.7 C37.3,20.7 40.1,1.3 20.8,0.7 C-1.2,1.45994328e-13 0.8,20.7 0.8,20.7 L0.8,20.7 Z" id="Shape" fill="#21B79E"></path>
                            <rect id="Rectangle-path" fill="#603813" x="0.9" y="20.3" width="36.5" height="5.5"></rect>
                        </g>
                        <g transform="translate(4.000000, 100.000000)" id="Shape">
                            <path d="M0.6,7.1 C0.6,7.1 3.2,70.8 5.5,111.3 L46.1,111.3 L46.1,11.2 C46.1,11.2 28.1,12 20,0.8 L0.6,7.1 L0.6,7.1 Z" fill="#494DA1"></path>
                            <path d="M90.6,7.1 C90.6,7.1 89.2,72.1 85.8,111.3 L46,111.3 L46,11.2 C46,11.2 63.2,12 71.3,0.8 L90.6,7.1 L90.6,7.1 Z" fill="#5B60AF"></path>
                        </g>
                    </g>
                    <path d="M35.6,137.1 C35.6,137.1 19.8,148.5 7.5,178.9 L37.9,188.2 L35.6,137.1 L35.6,137.1 Z" id="Shape" fill="#494DA1"></path>
                    <path d="M39.2,70.8 C39.9,69 40.4,60.2 49.3,49.8 C49.2,51 59.9,56.5 61.1,56.9 C66,58.5 72.3,59.4 74.4,54.2 C75.2,52.2 75.8,48 74.5,46 C77.8,51 85.5,54.1 91.7,54.9 C97.6,55.6 104.6,53.9 101.5,46.4 C102.8,46.4 112.1,59.2 123.1,55.1 C122.9,55.9 122.3,57 122.3,57.9 C122.4,62.3 121.5,68.2 123.5,72.2 C123.6,72.4 131,64.9 131.5,64.1 C133.8,60.8 135.5,56.9 136.3,53 C137.3,48.3 138.5,32.6 129.8,39.1 C129.5,32.5 131.7,25.1 126.7,20.4 C121.8,15.9 115.1,15.9 114,23.3 C112.8,17.1 111,10.2 106.3,6 C100.1,0.3 86.5,2.4 91.3,13.3 C89.2,8.5 87.1,1.4 80.9,0.8 C74.5,0.1 70.3,7.4 67.3,11.8 C68.6,8.4 66.1,4.5 62.8,3.5 C54.4,0.9 34.5,24 38.7,32.1 C32.4,19.9 25.2,39.6 24.8,45.2 C24.1,53.6 26.7,64.4 34.4,69.8 C36.1,70.9 38.6,72.3 39.2,70.8 L39.2,70.8 Z" id="Shape" fill="#D9A524"></path>
                    <path d="M129.9,39.1 C129.6,32.5 131.8,25.1 126.8,20.4 C121.9,15.9 115.2,15.9 114.1,23.3 C112.9,17.1 111.1,10.2 106.4,6 C100.2,0.3 86.6,2.4 91.4,13.3 C89.3,8.5 87.2,1.4 81,0.8 C80.9,0.8 81.1,0.8 81,0.8 L81,51 C84.5,53.1 87.9,54.4 91.6,54.8 C97.5,55.5 104.5,53.8 101.4,46.3 C102.7,46.3 112,59.1 123,55 C122.8,55.8 122.2,56.9 122.2,57.8 C122.3,62.2 121.4,68.1 123.4,72.1 C123.5,72.3 130.9,64.8 131.4,64 C133.7,60.7 135.4,56.8 136.2,52.9 C137.5,48.3 138.6,32.6 129.9,39.1 L129.9,39.1 Z" id="Shape" fill="#E0B024"></path>
                    <path d="M120.8,247.7 L39.4,247.5 L39.4,236.7 L121.5,236.7 L120.8,247.7 Z" id="Shape" fill="#42210B"></path>
                    <path d="M39.4,247.5 L39.6,267.8 C39.6,267.8 58.5,256.4 60.2,245.8 L39.4,247.5 L39.4,247.5 Z" id="Shape" fill="#5D5D5D"></path>
                    <path d="M120.7,245.7 L121.1,266.4 C121.1,266.4 102,255.5 99.9,244.9 L120.7,245.7 L120.7,245.7 Z" id="Shape" fill="#737474"></path>
                    <path d="M81.1,236.7 L81.1,247.5 L120.9,247.8 L121.5,236.7 L81.1,236.7 Z" id="Shape" fill="#59341B"></path>
                    <path d="M66.8,245.2 C66.8,247.5 64.2,249.4 61,249.4 L53.5,249.4 C50.3,249.4 47.7,247.5 47.7,245.2 L47.7,239.8 C47.7,237.5 50.3,235.6 53.5,235.6 L61,235.6 C64.2,235.6 66.8,237.5 66.8,239.8 L66.8,245.2 L66.8,245.2 Z" id="Shape" fill="#F2B451"></path>
                    <path d="M113.2,245.2 C113.2,247.5 110.6,249.4 107.4,249.4 L99.9,249.4 C96.7,249.4 94.1,247.5 94.1,245.2 L94.1,239.8 C94.1,237.5 96.7,235.6 99.9,235.6 L107.4,235.6 C110.6,235.6 113.2,237.5 113.2,239.8 L113.2,245.2 L113.2,245.2 Z" id="Shape" fill="#FFCA5F"></path>
                </g>
            </g>
        </g>
    </g>
</svg>