<?xml version="1.0" encoding="UTF-8" standalone="no"?>
<svg width="649px" height="218px" viewBox="0 0 649 218" version="1.1" xmlns="http://www.w3.org/2000/svg" xmlns:xlink="http://www.w3.org/1999/xlink" xmlns:sketch="http://www.bohemiancoding.com/sketch/ns">
    <!-- Generator: Sketch 3.4 (15575) - http://www.bohemiancoding.com/sketch -->
    <title>hero-illustration</title>
    <desc>Created with Sketch.</desc>
    <defs></defs>
    <g id="Illustration" stroke="none" stroke-width="1" fill="none" fill-rule="evenodd" sketch:type="MSPage">
        <g id="hero-illustration" sketch:type="MSLayerGroup" transform="translate(19.000000, 21.000000)">
            <g id="City" sketch:type="MSShapeGroup">
                <path d="M555.65,184.96 L587.53,184.96 L587.53,146.53 L571.59,123.2 L555.65,146.53 L555.65,184.96 L555.65,184.96 Z" id="Shape" fill="#ACD1D9"></path>
                <path d="M511.61,184.96 L543.49,184.96 L543.49,146.53 L527.55,123.2 L511.61,146.53 L511.61,184.96 L511.61,184.96 Z" id="Shape" fill="#FFFFFF"></path>
                <rect id="Rectangle-path" fill="#C7E4EA" x="511.61" y="146.53" width="44.04" height="38.43"></rect>
                <path d="M527.55,123.2 L571.59,123.2 L555.65,146.53 L511.61,146.53 L527.55,123.2 L527.55,123.2 Z" id="Shape" fill="#736357"></path>
                <path d="M553.01,146.53 L555.65,146.53 L571.59,123.2 L568.95,123.2 L553.01,146.53 L553.01,146.53 Z" id="Shape" fill="#534741"></path>
                <rect id="Rectangle-path" fill="#534741" x="513.89" y="143.95" width="41.54" height="2.58"></rect>
                <path d="M511.61,146.53 L514.25,146.53 L530.19,123.2 L527.55,123.2 L511.61,146.53 L511.61,146.53 Z" id="Shape" fill="#534741"></path>
                <path d="M524.87,174.79 L516.22,174.79 L516.22,159 C516.217344,157.852533 516.671313,156.751153 517.481758,155.938832 C518.292203,155.126511 519.39253,154.669997 520.54,154.67 L520.54,154.67 C521.689202,154.667337 522.792102,155.122677 523.604713,155.935287 C524.417323,156.747898 524.872663,157.850798 524.87,159 L524.87,174.79 L524.87,174.79 Z" id="Shape" fill="#68847D"></path>
                <path d="M551.02,174.79 L542.37,174.79 L542.37,159 C542.367344,157.852533 542.821313,156.751153 543.631758,155.938832 C544.442203,155.126511 545.54253,154.669997 546.69,154.67 L546.69,154.67 C547.839202,154.667337 548.942102,155.122677 549.754713,155.935287 C550.567323,156.747898 551.022663,157.850798 551.02,159 L551.02,174.79 L551.02,174.79 Z" id="Shape" fill="#9BB2AD"></path>
                <path d="M537.96,174.79 L529.31,174.79 L529.31,159 C529.307344,157.852533 529.761313,156.751153 530.571758,155.938832 C531.382203,155.126511 532.48253,154.669997 533.63,154.67 L533.63,154.67 C534.779202,154.667337 535.882102,155.122677 536.694713,155.935287 C537.507323,156.747898 537.962663,157.850798 537.96,159 L537.96,174.79 L537.96,174.79 Z" id="Shape" fill="#9BB2AD"></path>
                <rect id="Rectangle-path" fill="#FFF1D3" x="125.21" y="75.36" width="73.52" height="109.6"></rect>
                <rect id="Rectangle-path" fill="#754F38" x="129.45" y="41.66" width="65.04" height="29.47"></rect>
                <path d="M125.22,71.13 L125.22,38.27 L129.45,38.27 L129.45,71.13 L194.5,71.13 L194.5,38.27 L198.73,38.27 L198.73,71.13 L198.72,71.13 L198.72,75.36 L125.21,75.36 L125.21,71.13 L125.22,71.13 L125.22,71.13 Z" id="Shape" fill="#593C2B"></path>
                <rect id="Rectangle-path" fill="#FDC17F" x="144.25" y="33" width="7.97" height="21.7"></rect>
                <path d="M180.38,107.56 L189.96,107.56 L189.96,89.31 C189.96,86.664556 187.815444,84.52 185.17,84.52 L185.17,84.52 C183.897881,84.5173442 182.676955,85.0208308 181.776492,85.9194181 C180.876029,86.8180053 180.369997,88.0378785 180.37,89.31 L180.37,107.56 L180.38,107.56 Z" id="Shape" fill="#68847D"></path>
                <path d="M164.92,107.56 L174.5,107.56 L174.5,89.31 C174.5,88.039613 173.995341,86.8212578 173.097041,85.9229585 C172.198742,85.0246593 170.980387,84.52 169.71,84.52 L169.71,84.52 C167.064556,84.52 164.92,86.664556 164.92,89.31 L164.92,107.56 L164.92,107.56 Z" id="Shape" fill="#ACD1D9"></path>
                <path d="M149.45,107.56 L159.02,107.56 L159.02,89.31 C159.02,88.039613 158.515341,86.8212578 157.617041,85.9229585 C156.718742,85.0246593 155.500387,84.52 154.23,84.52 L154.23,84.52 C152.957881,84.5173442 151.736955,85.0208308 150.836492,85.9194181 C149.936029,86.8180053 149.429997,88.0378785 149.43,89.31 L149.43,107.56 L149.45,107.56 Z" id="Shape" fill="#ACD1D9"></path>
                <path d="M134.02,107.56 L143.61,107.56 L143.61,89.31 C143.61,86.664556 141.465444,84.52 138.82,84.52 L138.82,84.52 C137.547881,84.5173442 136.326955,85.0208308 135.426492,85.9194181 C134.526029,86.8180053 134.019997,88.0378785 134.02,89.31 L134.02,107.56 L134.02,107.56 Z" id="Shape" fill="#ACD1D9"></path>
                <path d="M180.38,141.11 L189.96,141.11 L189.96,122.87 C189.962656,121.597881 189.459169,120.376955 188.560582,119.476492 C187.661995,118.576029 186.442121,118.069997 185.17,118.07 L185.17,118.07 C183.896147,118.067338 182.6737,118.572196 181.772948,119.472948 C180.872196,120.3737 180.367338,121.596147 180.37,122.87 L180.37,141.11 L180.38,141.11 Z" id="Shape" fill="#68847D"></path>
                <path d="M164.92,141.11 L174.5,141.11 L174.5,122.87 C174.502656,121.597881 173.999169,120.376955 173.100582,119.476492 C172.201995,118.576029 170.982121,118.069997 169.71,118.07 L169.71,118.07 C168.437879,118.069997 167.218005,118.576029 166.319418,119.476492 C165.420831,120.376955 164.917344,121.597881 164.92,122.87 L164.92,141.11 L164.92,141.11 Z" id="Shape" fill="#ACD1D9"></path>
                <path d="M149.45,141.11 L159.02,141.11 L159.02,122.87 C159.022656,121.597881 158.519169,120.376955 157.620582,119.476492 C156.721995,118.576029 155.502121,118.069997 154.23,118.07 L154.23,118.07 C152.956147,118.067338 151.7337,118.572196 150.832948,119.472948 C149.932196,120.3737 149.427338,121.596147 149.43,122.87 L149.43,141.11 L149.45,141.11 Z" id="Shape" fill="#ACD1D9"></path>
                <path d="M134.02,141.11 L143.61,141.11 L143.61,122.87 C143.612656,121.597881 143.109169,120.376955 142.210582,119.476492 C141.311995,118.576029 140.092121,118.069997 138.82,118.07 L138.82,118.07 C137.546147,118.067338 136.3237,118.572196 135.422948,119.472948 C134.522196,120.3737 134.017338,121.596147 134.02,122.87 L134.02,141.11 L134.02,141.11 Z" id="Shape" fill="#ACD1D9"></path>
                <path d="M180.38,174.67 L189.96,174.67 L189.96,156.43 C189.962656,155.157881 189.459169,153.936955 188.560582,153.036492 C187.661995,152.136029 186.442121,151.629997 185.17,151.63 L185.17,151.63 C183.896147,151.627338 182.6737,152.132196 181.772948,153.032948 C180.872196,153.9337 180.367338,155.156147 180.37,156.43 L180.37,174.68 L180.38,174.67 Z" id="Shape" fill="#68847D"></path>
                <path d="M164.92,174.67 L174.5,174.67 L174.5,156.43 C174.502656,155.157881 173.999169,153.936955 173.100582,153.036492 C172.201995,152.136029 170.982121,151.629997 169.71,151.63 L169.71,151.63 C168.437879,151.629997 167.218005,152.136029 166.319418,153.036492 C165.420831,153.936955 164.917344,155.157881 164.92,156.43 L164.92,174.68 L164.92,174.67 Z" id="Shape" fill="#ACD1D9"></path>
                <path d="M149.45,174.67 L159.02,174.67 L159.02,156.43 C159.022656,155.157881 158.519169,153.936955 157.620582,153.036492 C156.721995,152.136029 155.502121,151.629997 154.23,151.63 L154.23,151.63 C152.956147,151.627338 151.7337,152.132196 150.832948,153.032948 C149.932196,153.9337 149.427338,155.156147 149.43,156.43 L149.43,174.68 L149.45,174.67 Z" id="Shape" fill="#ACD1D9"></path>
                <path d="M134.02,174.67 L143.61,174.67 L143.61,156.43 C143.612656,155.157881 143.109169,153.936955 142.210582,153.036492 C141.311995,152.136029 140.092121,151.629997 138.82,151.63 L138.82,151.63 C137.546147,151.627338 136.3237,152.132196 135.422948,153.032948 C134.522196,153.9337 134.017338,155.156147 134.02,156.43 L134.02,174.68 L134.02,174.67 Z" id="Shape" fill="#ACD1D9"></path>
                <rect id="Rectangle-path" fill="#5B60AF" x="460.2" y="146.64" width="73.52" height="38.32"></rect>
                <rect id="Rectangle-path" fill="#754F38" x="464.44" y="114.98" width="65.04" height="29.47"></rect>
                <path d="M460.21,144.45 L460.21,111.59 L464.45,111.59 L464.45,144.45 L529.49,144.45 L529.49,111.59 L533.72,111.59 L533.72,144.45 L533.71,144.45 L533.71,148.69 L460.2,148.69 L460.2,144.45 L460.21,144.45 L460.21,144.45 Z" id="Shape" fill="#593C2B"></path>
                <rect id="Rectangle-path" fill="#FFFFFF" x="505.81" y="106.32" width="7.97" height="21.7"></rect>
                <path d="M469.02,140.88 L478.61,140.88 L478.61,122.63 C478.61,119.984556 476.465444,117.84 473.82,117.84 L473.82,117.84 C472.547881,117.837344 471.326955,118.340831 470.426492,119.239418 C469.526029,120.138005 469.019997,121.357879 469.02,122.63 L469.02,140.88 L469.02,140.88 Z" id="Shape" fill="#68847D"></path>
                <path d="M515.37,174.44 L524.95,174.44 L524.95,156.19 C524.952656,154.917881 524.449169,153.696955 523.550582,152.796492 C522.651995,151.896029 521.432121,151.389997 520.16,151.39 L520.16,151.39 C518.887879,151.389997 517.668005,151.896029 516.769418,152.796492 C515.870831,153.696955 515.367344,154.917881 515.37,156.19 L515.37,174.44 L515.37,174.44 Z" id="Shape" fill="#ACD1D9"></path>
                <path d="M499.91,174.44 L509.49,174.44 L509.49,156.19 C509.492656,154.917881 508.989169,153.696955 508.090582,152.796492 C507.191995,151.896029 505.972121,151.389997 504.7,151.39 L504.7,151.39 C503.427879,151.389997 502.208005,151.896029 501.309418,152.796492 C500.410831,153.696955 499.907344,154.917881 499.91,156.19 L499.91,174.44 L499.91,174.44 Z" id="Shape" fill="#ACD1D9"></path>
                <path d="M484.44,174.44 L494.02,174.44 L494.02,156.19 C494.022656,154.917881 493.519169,153.696955 492.620582,152.796492 C491.721995,151.896029 490.502121,151.389997 489.23,151.39 L489.23,151.39 C487.956147,151.387338 486.7337,151.892196 485.832948,152.792948 C484.932196,153.6937 484.427338,154.916147 484.43,156.19 L484.43,174.44 L484.44,174.44 Z" id="Shape" fill="#ACD1D9"></path>
                <path d="M469.02,174.44 L478.61,174.44 L478.61,156.19 C478.612656,154.917881 478.109169,153.696955 477.210582,152.796492 C476.311995,151.896029 475.092121,151.389997 473.82,151.39 L473.82,151.39 C472.546147,151.387338 471.3237,151.892196 470.422948,152.792948 C469.522196,153.6937 469.017338,154.916147 469.02,156.19 L469.02,174.44 L469.02,174.44 Z" id="Shape" fill="#68847D"></path>
                <rect id="Rectangle-path" fill="#383A86" x="0.81" y="132.09" width="73.52" height="52.87"></rect>
                <rect id="Rectangle-path" fill="#754F38" x="5.05" y="98.38" width="65.04" height="29.47"></rect>
                <path d="M0.82,127.85 L0.82,94.99 L5.05,94.99 L5.05,127.85 L70.1,127.85 L70.1,94.99 L74.33,94.99 L74.33,127.85 L74.32,127.85 L74.32,132.09 L0.81,132.09 L0.81,127.85 L0.82,127.85 L0.82,127.85 Z" id="Shape" fill="#593C2B"></path>
                <rect id="Rectangle-path" fill="#FED991" x="19.84" y="89.72" width="7.97" height="21.7"></rect>
                <path d="M56.02,164.81 L65.6,164.81 L65.6,146.56 C65.6026558,145.287881 65.0991692,144.066955 64.2005819,143.166492 C63.3019947,142.266029 62.0821215,141.759997 60.81,141.76 L60.81,141.76 C59.5361466,141.757338 58.3137004,142.262196 57.4129481,143.162948 C56.5121957,144.0637 56.0073378,145.286147 56.01,146.56 L56.01,164.81 L56.02,164.81 Z" id="Shape" fill="#68847D"></path>
                <path d="M40.51,164.81 L50.09,164.81 L50.09,146.56 C50.0926558,145.287881 49.5891692,144.066955 48.6905819,143.166492 C47.7919947,142.266029 46.5721215,141.759997 45.3,141.76 L45.3,141.76 C44.0278785,141.759997 42.8080053,142.266029 41.9094181,143.166492 C41.0108308,144.066955 40.5073442,145.287881 40.51,146.56 L40.51,164.81 L40.51,164.81 Z" id="Shape" fill="#ACD1D9"></path>
                <path d="M25.02,164.81 L34.6,164.81 L34.6,146.56 C34.6026558,145.287881 34.0991692,144.066955 33.2005819,143.166492 C32.3019947,142.266029 31.0821215,141.759997 29.81,141.76 L29.81,141.76 C28.5361466,141.757338 27.3137004,142.262196 26.4129481,143.162948 C25.5121957,144.0637 25.0073378,145.286147 25.01,146.56 L25.01,164.81 L25.02,164.81 Z" id="Shape" fill="#ACD1D9"></path>
                <path d="M9.58,164.81 L19.17,164.81 L19.17,146.56 C19.1726558,145.287881 18.6691692,144.066955 17.7705819,143.166492 C16.8719947,142.266029 15.6521215,141.759997 14.38,141.76 L14.38,141.76 C13.1061466,141.757338 11.8837004,142.262196 10.9829481,143.162948 C10.0821957,144.0637 9.57733781,145.286147 9.58,146.56 L9.58,164.81 L9.58,164.81 Z" id="Shape" fill="#ACD1D9"></path>
                <rect id="Rectangle-path" fill="#383A86" x="0.8" y="172.56" width="73.52" height="2.3900001"></rect>
                <path d="M253.91,75.36 L253.91,42.37 L180.39,42.37 L180.39,151.96 L180.39,151.96 L180.39,184.96 L253.91,184.96 L253.91,75.36 L253.91,75.36 L253.91,75.36 Z" id="Shape" fill="#CD5E90"></path>
                <rect id="Rectangle-path" fill="#ACD1D9" x="189.15" y="151.63" width="9.58" height="18.25"></rect>
                <rect id="Rectangle-path" fill="#ACD1D9" x="204.62" y="151.63" width="9.58" height="18.25"></rect>
                <rect id="Rectangle-path" fill="#ACD1D9" x="220.09" y="151.63" width="9.58" height="18.25"></rect>
                <rect id="Rectangle-path" fill="#ACD1D9" x="235.56" y="151.63" width="9.59" height="18.25"></rect>
                <rect id="Rectangle-path" fill="#534741" x="178.27" y="174.45" width="77.75" height="10.5"></rect>
                <rect id="Rectangle-path" fill="#534741" x="184.63" y="8.66" width="65.04" height="29.47"></rect>
                <path d="M180.4,38.14 L180.4,5.27 L184.63,5.27 L184.63,38.14 L249.67,38.14 L249.67,5.27 L253.91,5.27 L253.91,38.14 L253.9,38.14 L253.9,42.37 L180.38,42.37 L180.38,38.14 L180.4,38.14 L180.4,38.14 Z" id="Shape" fill="#736357"></path>
                <rect id="Rectangle-path" fill="#754F38" x="229.17" y="0" width="3.99" height="21.7"></rect>
                <rect id="Rectangle-path" fill="#754F38" x="236.36" y="0" width="3.99" height="21.7"></rect>
                <path d="M235.56,74.56 L245.14,74.56 L245.14,56.31 C245.14,53.664556 242.995444,51.52 240.35,51.52 L240.35,51.52 C239.077881,51.5173442 237.856955,52.0208308 236.956492,52.9194181 C236.056029,53.8180053 235.549997,55.0378785 235.55,56.31 L235.55,74.56 L235.56,74.56 Z" id="Shape" fill="#ACD1D9"></path>
                <path d="M220.09,74.56 L229.67,74.56 L229.67,56.31 C229.67,53.664556 227.525444,51.52 224.88,51.52 L224.88,51.52 C222.234556,51.52 220.09,53.664556 220.09,56.31 L220.09,74.56 L220.09,74.56 Z" id="Shape" fill="#ACD1D9"></path>
                <path d="M204.62,74.56 L214.2,74.56 L214.2,56.31 C214.2,53.664556 212.055444,51.52 209.41,51.52 L209.41,51.52 C208.137881,51.5173442 206.916955,52.0208308 206.016492,52.9194181 C205.116029,53.8180053 204.609997,55.0378785 204.61,56.31 L204.61,74.56 L204.62,74.56 Z" id="Shape" fill="#ACD1D9"></path>
                <path d="M189.15,74.56 L198.73,74.56 L198.73,56.31 C198.73,55.039613 198.225341,53.8212578 197.327041,52.9229585 C196.428742,52.0246593 195.210387,51.52 193.94,51.52 L193.94,51.52 C192.667881,51.5173442 191.446955,52.0208308 190.546492,52.9194181 C189.646029,53.8180053 189.139997,55.0378785 189.14,56.31 L189.14,74.56 L189.15,74.56 Z" id="Shape" fill="#ACD1D9"></path>
                <path d="M235.56,108.12 L245.14,108.12 L245.14,89.87 C245.142656,88.5978813 244.639169,87.3769554 243.740582,86.4764922 C242.841995,85.576029 241.622121,85.0699972 240.35,85.07 L240.35,85.07 C239.076147,85.0673378 237.8537,85.5721957 236.952948,86.4729481 C236.052196,87.3737004 235.547338,88.5961466 235.55,89.87 L235.55,108.12 L235.56,108.12 Z" id="Shape" fill="#ACD1D9"></path>
                <path d="M220.09,108.12 L229.67,108.12 L229.67,89.87 C229.672656,88.5978813 229.169169,87.3769554 228.270582,86.4764922 C227.371995,85.576029 226.152121,85.0699972 224.88,85.07 L224.88,85.07 C223.607879,85.0699972 222.388005,85.576029 221.489418,86.4764922 C220.590831,87.3769554 220.087344,88.5978813 220.09,89.87 L220.09,108.12 L220.09,108.12 Z" id="Shape" fill="#ACD1D9"></path>
                <path d="M204.62,108.12 L214.2,108.12 L214.2,89.87 C214.202656,88.5978813 213.699169,87.3769554 212.800582,86.4764922 C211.901995,85.576029 210.682121,85.0699972 209.41,85.07 L209.41,85.07 C208.136147,85.0673378 206.9137,85.5721957 206.012948,86.4729481 C205.112196,87.3737004 204.607338,88.5961466 204.61,89.87 L204.61,108.12 L204.62,108.12 Z" id="Shape" fill="#ACD1D9"></path>
                <path d="M189.15,108.12 L198.73,108.12 L198.73,89.87 C198.732656,88.5978813 198.229169,87.3769554 197.330582,86.4764922 C196.431995,85.576029 195.212121,85.0699972 193.94,85.07 L193.94,85.07 C192.666147,85.0673378 191.4437,85.5721957 190.542948,86.4729481 C189.642196,87.3737004 189.137338,88.5961466 189.14,89.87 L189.14,108.12 L189.15,108.12 Z" id="Shape" fill="#ACD1D9"></path>
                <path d="M235.56,141.68 L245.14,141.68 L245.14,123.43 C245.142656,122.157881 244.639169,120.936955 243.740582,120.036492 C242.841995,119.136029 241.622121,118.629997 240.35,118.63 L240.35,118.63 C239.076147,118.627338 237.8537,119.132196 236.952948,120.032948 C236.052196,120.9337 235.547338,122.156147 235.55,123.43 L235.55,141.68 L235.56,141.68 Z" id="Shape" fill="#ACD1D9"></path>
                <path d="M220.09,141.68 L229.67,141.68 L229.67,123.43 C229.672656,122.157881 229.169169,120.936955 228.270582,120.036492 C227.371995,119.136029 226.152121,118.629997 224.88,118.63 L224.88,118.63 C223.607879,118.629997 222.388005,119.136029 221.489418,120.036492 C220.590831,120.936955 220.087344,122.157881 220.09,123.43 L220.09,141.68 L220.09,141.68 Z" id="Shape" fill="#ACD1D9"></path>
                <path d="M204.62,141.68 L214.2,141.68 L214.2,123.43 C214.202656,122.157881 213.699169,120.936955 212.800582,120.036492 C211.901995,119.136029 210.682121,118.629997 209.41,118.63 L209.41,118.63 C208.136147,118.627338 206.9137,119.132196 206.012948,120.032948 C205.112196,120.9337 204.607338,122.156147 204.61,123.43 L204.61,141.68 L204.62,141.68 Z" id="Shape" fill="#ACD1D9"></path>
                <path d="M189.15,141.68 L198.73,141.68 L198.73,123.43 C198.732656,122.157881 198.229169,120.936955 197.330582,120.036492 C196.431995,119.136029 195.212121,118.629997 193.94,118.63 L193.94,118.63 C192.666147,118.627338 191.4437,119.132196 190.542948,120.032948 C189.642196,120.9337 189.137338,122.156147 189.14,123.43 L189.14,141.68 L189.15,141.68 Z" id="Shape" fill="#ACD1D9"></path>
                <circle id="Oval" fill="#C6F81C" cx="594.28" cy="153.71" r="14.23"></circle>
                <path d="M594.28,167.94 L594.28,139.48 C586.420988,139.48 580.05,145.850988 580.05,153.71 C580.05,161.569012 586.420988,167.94 594.28,167.94 L594.28,167.94 Z" id="Shape" fill="#85BC02"></path>
                <rect id="Rectangle-path" fill="#754C24" x="592.39" y="159.92" width="3.78" height="25.04"></rect>
                <path d="M103.45,184.96 L138.77,184.96 L138.77,110.58 L121.11,84.73 L103.45,110.58 L103.45,184.96 L103.45,184.96 Z" id="Shape" fill="#FFFFFF"></path>
                <path d="M54.65,184.96 L89.97,184.96 L89.97,110.58 L72.31,84.73 L54.65,110.58 L54.65,184.96 L54.65,184.96 Z" id="Shape" fill="#FFFFFF"></path>
                <rect id="Rectangle-path" fill="#E6E6E6" x="54.65" y="110.58" width="48.8" height="74.38"></rect>
                <path d="M72.31,84.73 L121.11,84.73 L103.45,110.58 L54.65,110.58 L72.31,84.73 L72.31,84.73 Z" id="Shape" fill="#534741"></path>
                <rect id="Rectangle-path" fill="#998675" x="103.45" y="179.64" width="35.32" height="5.32"></rect>
                <rect id="Rectangle-path" fill="#736357" x="54.65" y="179.64" width="48.8" height="5.32"></rect>
                <rect id="Rectangle-path" fill="#E6E6E6" x="76.39" y="79.59" width="4.02" height="20.26"></rect>
                <rect id="Rectangle-path" fill="#E6E6E6" x="84.05" y="79.59" width="4.02" height="20.26"></rect>
                <rect id="Rectangle-path" fill="#ACD1D9" x="86.99" y="156.11" width="7.13" height="20.51"></rect>
                <rect id="Rectangle-path" fill="#ACD1D9" x="75.49" y="156.11" width="7.12" height="20.51"></rect>
                <rect id="Rectangle-path" fill="#ACD1D9" x="63.97" y="156.11" width="7.13" height="20.51"></rect>
                <rect id="Rectangle-path" fill="#ACD1D9" x="86.99" y="118.92" width="7.13" height="20.51"></rect>
                <rect id="Rectangle-path" fill="#ACD1D9" x="75.49" y="118.92" width="7.12" height="20.51"></rect>
                <rect id="Rectangle-path" fill="#ACD1D9" x="63.97" y="118.92" width="7.13" height="20.51"></rect>
                <path d="M100.52,110.58 L103.45,110.58 L121.11,84.73 L118.18,84.73 L100.52,110.58 L100.52,110.58 Z" id="Shape" fill="#736357"></path>
                <rect id="Rectangle-path" fill="#736357" x="57.17" y="107.72" width="46.03" height="2.86"></rect>
                <path d="M54.65,110.58 L57.57,110.58 L75.24,84.73 L72.31,84.73 L54.65,110.58 L54.65,110.58 Z" id="Shape" fill="#736357"></path>
                <circle id="Oval" fill="#ACD1D9" cx="121.11" cy="106.82" r="3.75"></circle>
                <path d="M449.46,184.96 L481.34,184.96 L481.34,121.52 L465.4,98.19 L449.46,121.52 L449.46,184.96 L449.46,184.96 Z" id="Shape" fill="#EC6AA5"></path>
                <path d="M405.42,184.96 L437.3,184.96 L437.3,121.52 L421.36,98.19 L405.42,121.52 L405.42,184.96 L405.42,184.96 Z" id="Shape" fill="#FFFFFF"></path>
                <rect id="Rectangle-path" fill="#CC5E90" x="405.42" y="121.52" width="44.04" height="63.44"></rect>
                <path d="M421.36,98.19 L465.4,98.19 L449.46,121.52 L405.42,121.52 L421.36,98.19 L421.36,98.19 Z" id="Shape" fill="#736357"></path>
                <rect id="Rectangle-path" fill="#FCAC99" x="425.04" y="93.56" width="3.63" height="18.28"></rect>
                <rect id="Rectangle-path" fill="#FCAC99" x="431.96" y="93.56" width="3.63" height="18.28"></rect>
                <path d="M446.82,121.52 L449.46,121.52 L465.4,98.19 L462.76,98.19 L446.82,121.52 L446.82,121.52 Z" id="Shape" fill="#534741"></path>
                <rect id="Rectangle-path" fill="#534741" x="407.7" y="118.94" width="41.54" height="2.58"></rect>
                <path d="M405.42,121.52 L408.06,121.52 L424,98.19 L421.36,98.19 L405.42,121.52 L405.42,121.52 Z" id="Shape" fill="#534741"></path>
                <path d="M422.2,178.31 L413.55,178.31 L413.55,162.57 C413.547344,161.422533 414.001313,160.321153 414.811758,159.508832 C415.622203,158.696511 416.72253,158.239997 417.87,158.24 L417.87,158.24 C419.018387,158.24 420.11974,158.696195 420.931772,159.508228 C421.743805,160.32026 422.2,161.421613 422.2,162.57 L422.2,178.31 L422.2,178.31 Z" id="Shape" fill="#68847D"></path>
                <path d="M441.33,178.31 L432.68,178.31 L432.68,162.57 C432.677344,161.422533 433.131313,160.321153 433.941758,159.508832 C434.752203,158.696511 435.85253,158.239997 437,158.24 L437,158.24 C438.149202,158.237337 439.252102,158.692677 440.064713,159.505287 C440.877323,160.317898 441.332663,161.420798 441.33,162.57 L441.33,178.31 L441.33,178.31 Z" id="Shape" fill="#ACD1D9"></path>
                <path d="M422.2,149.78 L413.55,149.78 L413.55,134 C413.547344,132.852533 414.001313,131.751153 414.811758,130.938832 C415.622203,130.126511 416.72253,129.669997 417.87,129.67 L417.87,129.67 C419.019202,129.667337 420.122102,130.122677 420.934713,130.935287 C421.747323,131.747898 422.202663,132.850798 422.2,134 L422.2,149.78 L422.2,149.78 Z" id="Shape" fill="#ACD1D9"></path>
                <path d="M441.33,149.78 L432.68,149.78 L432.68,134 C432.677344,132.852533 433.131313,131.751153 433.941758,130.938832 C434.752203,130.126511 435.85253,129.669997 437,129.67 L437,129.67 C438.149202,129.667337 439.252102,130.122677 440.064713,130.935287 C440.877323,131.747898 441.332663,132.850798 441.33,134 L441.33,149.78 L441.33,149.78 Z" id="Shape" fill="#ACD1D9"></path>
                <path d="M79.02,174.42 C76.3009974,174.419153 73.6876818,175.473083 71.73,177.36 C68.3474664,172.008773 61.8347297,169.538067 55.7539918,171.299256 C49.6732539,173.060445 45.4890625,178.629348 45.49,184.96 L89.56,184.96 C89.56,179.138919 84.8410813,174.42 79.02,174.42 L79.02,174.42 Z" id="Shape" fill="#85BC02"></path>
                <rect id="Rectangle-path" fill="#E6E6E6" x="341.85" y="75.36" width="73.52" height="109.6"></rect>
                <rect id="Rectangle-path" fill="#754F38" x="346.08" y="41.66" width="65.04" height="29.47"></rect>
                <path d="M415.36,71.13 L415.36,38.27 L411.12,38.27 L411.12,71.13 L346.08,71.13 L346.08,38.27 L341.85,38.27 L341.85,71.13 L341.86,71.13 L341.86,75.36 L415.37,75.36 L415.37,71.13 L415.36,71.13 L415.36,71.13 Z" id="Shape" fill="#593C2B"></path>
                <rect id="Rectangle-path" fill="#593C2B" x="388.36" y="33" width="7.97" height="21.7"></rect>
                <path d="M360.2,107.56 L350.62,107.56 L350.62,89.31 C350.62,86.664556 352.764556,84.52 355.41,84.52 L355.41,84.52 C356.682119,84.5173442 357.903045,85.0208308 358.803508,85.9194181 C359.703971,86.8180053 360.210003,88.0378785 360.21,89.31 L360.21,107.56 L360.2,107.56 Z" id="Shape" fill="#ACD1D9"></path>
                <path d="M375.66,107.56 L366.08,107.56 L366.08,89.31 C366.08,86.664556 368.224556,84.52 370.87,84.52 L370.87,84.52 C373.515444,84.52 375.66,86.664556 375.66,89.31 L375.66,107.56 L375.66,107.56 Z" id="Shape" fill="#ACD1D9"></path>
                <path d="M391.13,107.56 L381.55,107.56 L381.55,89.31 C381.55,86.664556 383.694556,84.52 386.34,84.52 L386.34,84.52 C387.612119,84.5173442 388.833045,85.0208308 389.733508,85.9194181 C390.633971,86.8180053 391.140003,88.0378785 391.14,89.31 L391.14,107.56 L391.13,107.56 Z" id="Shape" fill="#ACD1D9"></path>
                <path d="M406.6,107.56 L397.02,107.56 L397.02,89.31 C397.02,86.664556 399.164556,84.52 401.81,84.52 L401.81,84.52 C403.082119,84.5173442 404.303045,85.0208308 405.203508,85.9194181 C406.103971,86.8180053 406.610003,88.0378785 406.61,89.31 L406.61,107.56 L406.6,107.56 Z" id="Shape" fill="#ACD1D9"></path>
                <path d="M360.2,141.11 L350.62,141.11 L350.62,122.87 C350.617344,121.597881 351.120831,120.376955 352.019418,119.476492 C352.918005,118.576029 354.137879,118.069997 355.41,118.07 L355.41,118.07 C356.683853,118.067338 357.9063,118.572196 358.807052,119.472948 C359.707804,120.3737 360.212662,121.596147 360.21,122.87 L360.21,141.11 L360.2,141.11 Z" id="Shape" fill="#ACD1D9"></path>
                <path d="M375.66,141.11 L366.08,141.11 L366.08,122.87 C366.077344,121.597881 366.580831,120.376955 367.479418,119.476492 C368.378005,118.576029 369.597879,118.069997 370.87,118.07 L370.87,118.07 C372.142121,118.069997 373.361995,118.576029 374.260582,119.476492 C375.159169,120.376955 375.662656,121.597881 375.66,122.87 L375.66,141.11 L375.66,141.11 Z" id="Shape" fill="#ACD1D9"></path>
                <path d="M391.13,141.11 L381.55,141.11 L381.55,122.87 C381.547344,121.597881 382.050831,120.376955 382.949418,119.476492 C383.848005,118.576029 385.067879,118.069997 386.34,118.07 L386.34,118.07 C387.613853,118.067338 388.8363,118.572196 389.737052,119.472948 C390.637804,120.3737 391.142662,121.596147 391.14,122.87 L391.14,141.11 L391.13,141.11 Z" id="Shape" fill="#ACD1D9"></path>
                <path d="M406.6,141.11 L397.02,141.11 L397.02,122.87 C397.017344,121.597881 397.520831,120.376955 398.419418,119.476492 C399.318005,118.576029 400.537879,118.069997 401.81,118.07 L401.81,118.07 C403.083853,118.067338 404.3063,118.572196 405.207052,119.472948 C406.107804,120.3737 406.612662,121.596147 406.61,122.87 L406.61,141.11 L406.6,141.11 Z" id="Shape" fill="#ACD1D9"></path>
                <rect id="Rectangle-path" fill="#ACD1D9" x="350.61" y="151.63" width="9.58" height="18.25"></rect>
                <rect id="Rectangle-path" fill="#ACD1D9" x="366.08" y="151.63" width="9.58" height="18.25"></rect>
                <rect id="Rectangle-path" fill="#ACD1D9" x="381.55" y="151.63" width="9.58" height="18.25"></rect>
                <rect id="Rectangle-path" fill="#ACD1D9" x="397.01" y="151.63" width="9.59" height="18.25"></rect>
                <rect id="Rectangle-path" fill="#736357" x="339.73" y="174.45" width="77.75" height="10.5"></rect>
                <rect id="Rectangle-path" fill="#FFEABF" x="273.53" y="75.97" width="73.11" height="108.99"></rect>
                <rect id="Rectangle-path" fill="#534741" x="324.43" y="57.11" width="7.93" height="18.86"></rect>
                <rect id="Rectangle-path" fill="#534741" x="316.37" y="50.75" width="5.18" height="25.22"></rect>
                <path d="M291.78,106.97 L282.25,106.97 L282.25,88.83 C282.247344,87.5658378 282.74767,86.3525425 283.640631,85.4577054 C284.533592,84.5628683 285.745835,84.0599972 287.01,84.06 L287.01,84.06 C288.275897,84.0573377 289.490713,84.5590349 290.385839,85.4541612 C291.280965,86.3492875 291.782662,87.5641031 291.78,88.83 L291.78,106.97 L291.78,106.97 Z" id="Shape" fill="#ACD1D9"></path>
                <path d="M307.16,106.97 L297.63,106.97 L297.63,88.83 C297.627344,87.5658378 298.12767,86.3525425 299.020631,85.4577054 C299.913592,84.5628683 301.125835,84.0599972 302.39,84.06 L302.39,84.06 C303.655897,84.0573377 304.870713,84.5590349 305.765839,85.4541612 C306.660965,86.3492875 307.162662,87.5641031 307.16,88.83 L307.16,106.97 L307.16,106.97 Z" id="Shape" fill="#ACD1D9"></path>
                <path d="M322.54,106.97 L313.02,106.97 L313.02,88.83 C313.017344,87.5658378 313.51767,86.3525425 314.410631,85.4577054 C315.303592,84.5628683 316.515835,84.0599972 317.78,84.06 L317.78,84.06 C319.045897,84.0573377 320.260713,84.5590349 321.155839,85.4541612 C322.050965,86.3492875 322.552662,87.5641031 322.55,88.83 L322.55,106.97 L322.54,106.97 Z" id="Shape" fill="#ACD1D9"></path>
                <path d="M337.93,106.97 L328.4,106.97 L328.4,88.83 C328.397344,87.5658378 328.89767,86.3525425 329.790631,85.4577054 C330.683592,84.5628683 331.895835,84.0599972 333.16,84.06 L333.16,84.06 C335.794398,84.06 337.93,86.1956017 337.93,88.83 L337.93,106.97 L337.93,106.97 Z" id="Shape" fill="#ACD1D9"></path>
                <path d="M291.78,152.37 L282.25,152.37 L282.25,134.23 C282.247344,132.965838 282.74767,131.752543 283.640631,130.857705 C284.533592,129.962868 285.745835,129.459997 287.01,129.46 L287.01,129.46 C289.644398,129.46 291.78,131.595602 291.78,134.23 L291.78,152.37 L291.78,152.37 Z" id="Shape" fill="#ACD1D9"></path>
                <path d="M307.16,152.37 L297.63,152.37 L297.63,134.23 C297.627344,132.965838 298.12767,131.752543 299.020631,130.857705 C299.913592,129.962868 301.125835,129.459997 302.39,129.46 L302.39,129.46 C303.655897,129.457338 304.870713,129.959035 305.765839,130.854161 C306.660965,131.749287 307.162662,132.964103 307.16,134.23 L307.16,152.37 L307.16,152.37 Z" id="Shape" fill="#ACD1D9"></path>
                <path d="M322.54,152.37 L313.02,152.37 L313.02,134.23 C313.017344,132.965838 313.51767,131.752543 314.410631,130.857705 C315.303592,129.962868 316.515835,129.459997 317.78,129.46 L317.78,129.46 C319.045897,129.457338 320.260713,129.959035 321.155839,130.854161 C322.050965,131.749287 322.552662,132.964103 322.55,134.23 L322.55,152.37 L322.54,152.37 Z" id="Shape" fill="#ACD1D9"></path>
                <path d="M337.93,152.37 L328.4,152.37 L328.4,134.23 C328.397344,132.965838 328.89767,131.752543 329.790631,130.857705 C330.683592,129.962868 331.895835,129.459997 333.16,129.46 L333.16,129.46 C335.794398,129.46 337.93,131.595602 337.93,134.23 L337.93,152.37 L337.93,152.37 Z" id="Shape" fill="#ACD1D9"></path>
                <rect id="Rectangle-path" fill="#998675" x="271.42" y="172.96" width="77.32" height="11.99"></rect>
                <rect id="Rectangle-path" fill="#998675" x="271.42" y="111.39" width="77.32" height="3.65"></rect>
                <rect id="Rectangle-path" fill="#998675" x="271.42" y="74.15" width="77.32" height="3.65"></rect>
                <rect id="Rectangle-path" fill="#736357" x="269.97" y="68.33" width="80.23" height="6.92"></rect>
                <circle id="Oval" fill="#C6F81C" cx="419.82" cy="158.63" r="11.99"></circle>
                <path d="M419.83,170.61 L419.83,146.61 C413.202583,146.61 407.83,151.982583 407.83,158.61 C407.83,165.237417 413.202583,170.61 419.83,170.61 L419.83,170.61 Z" id="Shape" fill="#85BC02"></path>
                <rect id="Rectangle-path" fill="#754C24" x="418.23" y="163.86" width="3.19" height="21.1"></rect>
                <path d="M444.41,176.12 C442.131676,176.118142 439.941428,176.999976 438.3,178.58 C435.466157,174.09031 430.004552,172.016065 424.904787,173.492679 C419.805023,174.969293 416.296609,179.640765 416.3,184.95 L453.25,184.95 C453.250002,182.606405 452.318328,180.358943 450.660218,178.702709 C449.002109,177.046475 446.753594,176.117346 444.41,176.12 L444.41,176.12 Z" id="Shape" fill="#85BC02"></path>
                <circle id="Oval" fill="#C6F81C" cx="578.24" cy="158.63" r="11.99"></circle>
                <path d="M578.24,170.61 L578.24,146.61 C571.612583,146.61 566.24,151.982583 566.24,158.61 C566.24,165.237417 571.612583,170.61 578.24,170.61 L578.24,170.61 Z" id="Shape" fill="#85BC02"></path>
                <rect id="Rectangle-path" fill="#754C24" x="576.65" y="163.86" width="3.18" height="21.1"></rect>
                <path d="M581.97,176.12 C584.248324,176.118142 586.438572,176.999976 588.08,178.58 C590.913843,174.09031 596.375448,172.016065 601.475213,173.492679 C606.574977,174.969293 610.083391,179.640765 610.08,184.95 L573.13,184.95 C573.135518,180.071709 577.091705,176.119997 581.97,176.12 L581.97,176.12 Z" id="Shape" fill="#85BC02"></path>
                <circle id="Oval" fill="#C6F81C" cx="263.67" cy="158.63" r="11.99"></circle>
                <path d="M263.67,170.61 L263.67,146.61 C257.042583,146.61 251.67,151.982583 251.67,158.61 C251.67,165.237417 257.042583,170.61 263.67,170.61 L263.67,170.61 Z" id="Shape" fill="#85BC02"></path>
                <rect id="Rectangle-path" fill="#754C24" x="262.08" y="163.86" width="3.18" height="21.1"></rect>
                <circle id="Oval" fill="#C6F81C" cx="244.34" cy="153.71" r="14.23"></circle>
                <path d="M244.34,167.94 L244.34,139.48 C236.480988,139.48 230.11,145.850988 230.11,153.71 C230.11,161.569012 236.480988,167.94 244.34,167.94 L244.34,167.94 Z" id="Shape" fill="#85BC02"></path>
                <rect id="Rectangle-path" fill="#754C24" x="242.45" y="159.92" width="3.78" height="25.04"></rect>
                <rect id="Rectangle-path" fill="#7E7E7E" x="0.8" y="184.67" width="609.63" height="12.3000002"></rect>
            </g>
            <g id="Bil" transform="translate(229.000000, 169.000000)" sketch:type="MSShapeGroup">
                <path d="M40.7,15.3167135 C40.33,8.42671353 35.53,0.736713529 32.7,0.736713529 L21.07,0.736713529 C19.26,0.736713529 10.91,8.61671353 10.18,11.7367135 L4,11.7367135 C1.790861,11.7367135 0,13.5275745 0,15.7367135 L0,19.7367135 C0,21.9458525 1.790861,23.7367135 4,23.7367135 L36.71,23.7367135 C38.919139,23.7367135 40.71,21.9458525 40.71,19.7367135 L40.71,15.7367135 C40.7141384,15.5966353 40.7108003,15.4564361 40.7,15.3167135 L40.7,15.3167135 Z" id="Shape" fill="#ACD1D9"></path>
                <circle id="Oval" fill="#32403D" cx="10.11" cy="22.8467135" r="5.11"></circle>
                <circle id="Oval" fill="#465955" cx="10.36" cy="23.0967135" r="2.36"></circle>
                <circle id="Oval" fill="#32403D" cx="32.11" cy="22.8467135" r="5.11"></circle>
                <circle id="Oval" fill="#465955" cx="32.36" cy="23.0967135" r="2.36"></circle>
                <path d="M33.5534118,3.73671353 L20.8534118,3.73671353 C19.0534118,5.23671353 13.4834118,11.0967135 15.3934118,11.0967135 L37.3934118,11.0967135 C36.5601173,8.43502548 35.2598508,5.94284801 33.5534118,3.73671353 L33.5534118,3.73671353 Z" id="Shape" fill="#68847D"></path>
                <path d="M40.91,15.7367135 L39.64,15.7367135 C39.2865378,15.7367135 39,16.0232513 39,16.3767135 L39,17.0167135 C39,17.3701758 39.2865378,17.6567135 39.64,17.6567135 L40.91,17.6567135 L40.91,15.7367135 L40.91,15.7367135 Z" id="Shape" fill="#FFFFFF"></path>
                <path d="M1,13.7367263 L0.37,13.7367263 C0.129098378,14.2571394 0.00291318228,14.8232676 0,15.3967263 L0,16.6367263 L1,16.6367263 C1.55228475,16.6367263 2,16.189011 2,15.6367263 L2,14.6367263 C1.94845802,14.123825 1.51547807,13.734143 1,13.7367263 L1,13.7367263 Z" id="Shape" fill="#FFFFFF"></path>
                <path d="M15.5390588,12.5717308 C15.0051292,12.6166559 14.4913747,12.3572116 14.2105892,11.9008581 C13.9298036,11.4445046 13.9298036,10.868957 14.2105892,10.4126035 C14.4913747,9.95625002 15.0051292,9.69680572 15.5390588,9.74173082 L15.5390588,12.5717308 L15.5390588,12.5717308 Z" id="Shape" fill="#7ED1B8"></path>
            </g>
            <g id="Trailer" transform="translate(268.000000, 163.000000)" sketch:type="MSShapeGroup">
                <path d="M2,28 C2,27.1715729 2.66485483,26.3940618 3.478846,26.2669219 C3.478846,26.2669219 9.54737037,25.2762598 13.230835,25 C16.9142996,24.7237402 22,25 22,25 L22,28 L2,28 L2,28 Z" id="Rectangle-62" fill="#32403D"></path>
                <rect id="Rectangle-61-Copy" fill="#ACD1D9" x="15" y="0" width="55" height="28.5" rx="6"></rect>
                <path d="M17,6.74903746 C17,3.98814531 19.2406786,1.75 22.0062798,1.75 L62.9937202,1.75 C65.7586122,1.75 68,3.99058456 68,6.74903746 L68,21.7509625 C68,24.5118547 65.7593214,26.75 62.9937202,26.75 L22.0062798,26.75 C19.2413878,26.75 17,24.5094154 17,21.7509625 L17,6.74903746 Z" id="Rectangle-61-Copy-2" fill="#83B7C3"></path>
                <circle id="Oval-Copy-4" fill="#32403D" cx="37.11" cy="28.8467135" r="5.11"></circle>
                <circle id="Oval-Copy-3" fill="#465955" cx="37.36" cy="29.0967135" r="2.36"></circle>
                <circle id="Oval-Copy-2" fill="#32403D" cx="48.11" cy="28.8467135" r="5.11"></circle>
                <circle id="Oval-Copy" fill="#465955" cx="48.36" cy="29.0967135" r="2.36"></circle>
                <path d="M0.372375488,28.4147949 L0.698913574,28 L2.25061035,29.5327759 L2.56500244,28 L3.19335938,28 C3.19335938,28 2.73840549,29.8166208 2.56500244,30 C2.25097656,30.3320923 2.25772095,30.2263184 1.94927979,30 C1.64083862,29.7736816 0.372375488,28.4147949 0.372375488,28.4147949 Z" id="Rectangle-62" stroke="#465955" fill="#D8D8D8"></path>
            </g>
            <g id="Gloover-1-Copy" transform="translate(348.740000, 145.000000)" sketch:type="MSShapeGroup">
                <g id="Group" transform="translate(-0.000000, 12.870370)" fill="#EA9878">
                    <path d="M3.69444444,8.51851852 L3.36111111,9.90740741 C3.36111111,9.90740741 2.36111111,12.1574074 4.26851852,12.7777778 L4.84259259,8.57407407 L3.69444444,8.51851852 L3.69444444,8.51851852 Z" id="Shape"></path>
                    <path d="M1.87962963,6.37037037 L3.4537037,3.74074074 L3.40740741,0.0648148148 C3.40740741,0.0648148148 -0.37037037,4.55555556 0.0648148148,6.61111111 C0.296296296,7.7037037 1.06481481,8.47222222 3.36111111,9.90740741 L3.69444444,8.51851852 L1.87962963,6.37037037 L1.87962963,6.37037037 Z" id="Shape"></path>
                </g>
                <g id="Group" transform="translate(10.092593, 12.870370)" fill="#F7BDA6">
                    <path d="M1.21296296,8.51851852 L1.5462963,9.90740741 C1.5462963,9.90740741 2.5462963,12.1574074 0.638888889,12.7777778 L0.0648148148,8.57407407 L1.21296296,8.51851852 L1.21296296,8.51851852 Z" id="Shape"></path>
                    <path d="M3.02777778,6.46296296 L1.4537037,3.74074074 L1.5,0.0648148148 C1.5,0.0648148148 5.27777778,4.64814815 4.84259259,6.7037037 C4.61111111,7.7962963 3.84259259,8.47222222 1.5462963,9.90740741 L1.21296296,8.51851852 L3.02777778,6.46296296 L3.02777778,6.46296296 Z" id="Shape"></path>
                </g>
                <path d="M3.00925926,5.02777778 C1.78703704,6.9537037 2.02777778,9.49074074 5.5462963,9.50925926 C5.69444444,9.50925926 6.13888889,9.42592593 6.18518519,9.30555556 C6.25,9.12962963 5.24074074,8.01851852 5.12962963,7.86111111 C4.5462963,7.05555556 3.96296296,6.25925926 3.37037037,5.4537037 C3.25925926,5.30555556 3.14814815,5.14814815 3.00925926,5.02777778 L3.00925926,5.02777778 Z" id="Shape" fill="#C09427"></path>
                <path d="M12.1574074,4.80555556 C12.7037037,5.36111111 12.7037037,6.98148148 12.4814815,7.66666667 C12.2222222,8.4537037 11.6388889,9.05555556 10.8703704,9.38888889 C10.1944444,9.68518519 8.9537037,9.78703704 8.78703704,9.30555556 L12.1574074,4.80555556 L12.1574074,4.80555556 Z" id="Shape" fill="#CF9E23"></path>
                <path d="M11.6296296,12.6944444 C11.6296296,12.6944444 13.0555556,13.75 14.2037037,16.5648148 L11.3888889,17.4259259 L11.6296296,12.6944444 L11.6296296,12.6944444 Z" id="Shape" fill="#494DA1"></path>
                <g id="Group" transform="translate(2.870370, 2.777778)">
                    <path d="M5.40740741,25.6574074 C5.68518519,27.6018519 5.93518519,32.25 6.19444444,35.537037 L8.12037037,35.537037 L7.96296296,25.6574074 L5.40740741,25.6574074 L5.40740741,25.6574074 Z" id="Shape" fill="#E09B7E"></path>
                    <path d="M1.18518519,25.5092593 C1.46296296,27.4537037 1.23148148,32.1018519 1.5,35.3888889 L3.42592593,35.3888889 L3.74074074,25.5092593 L1.18518519,25.5092593 L1.18518519,25.5092593 Z" id="Shape" fill="#E09B7E"></path>
                    <path d="M8.28703704,19.4166667 C8.28703704,19.3518519 8.28703704,19.2962963 8.27777778,19.2407407 L8.27777778,19.2314815 L8.03703704,18.8703704 L4.62962963,18.8703704 L1.13888889,18.8888889 L0.851851852,19.2407407 C0.851851852,19.2222222 0.851851852,19.212963 0.851851852,19.25 L0.851851852,19.2777778 C0.787037037,21.3981481 0.833333333,30.8703704 1.12962963,34.5185185 L3.64814815,34.5185185 L4.38888889,23.0648148 C4.48148148,23.0833333 4.55555556,23.0925926 4.63888889,23.0925926 C4.7037037,23.0925926 4.78703704,23.0833333 4.86111111,23.0740741 L5.69444444,34.5185185 L8.39814815,34.5185185 C8.67592593,30.9444444 8.37037037,21.5277778 8.28703704,19.4166667 L8.28703704,19.4166667 Z" id="Shape" fill="#5093D6"></path>
                    <g transform="translate(0.833333, 19.166667)" id="Shape">
                        <path d="M0.0185185185,0.0740740741 C0.0185185185,0.166666667 0.0277777778,-0.00925925926 0.0185185185,0.0740740741 C-0.111111111,1.53703704 2.38888889,3.88888889 3.7962963,3.91666667 L3.7962963,0.00925925926 L0.0185185185,0.0740740741 L0.0185185185,0.0740740741 Z" fill="#2C2B2B"></path>
                        <path d="M3.80555556,0 L3.80555556,3.90740741 C5.21296296,3.88888889 7.62037037,1.53703704 7.4537037,0.0740740741 C7.44444444,0 3.80555556,0 3.80555556,0 Z" fill="#323232"></path>
                    </g>
                    <path d="M1.12962963,34.5092593 L3.64814815,34.5092593 L4.38888889,23.0185185 L1.64814815,19.1481481 L0.851851852,19.2407407 C0.777777778,21.5092593 0.842592593,30.9907407 1.12962963,34.5092593 Z" id="Shape" fill="#272727"></path>
                    <path d="M7.68518519,19.1388889 L4.85185185,23.0092593 L5.69444444,34.5 L8.39814815,34.5 C8.68518519,30.8425926 8.35185185,21.3611111 8.28703704,19.2314815 L7.68518519,19.1388889 L7.68518519,19.1388889 Z" id="Shape" fill="#3A3A3A"></path>
                    <g transform="translate(0.833333, 18.796296)" id="Shape">
                        <path fill="#42210B" d="M3.80555556,0.435185185 L0.0185185185,0.444444444 L0.314814815,0.0925925926 L3.80555556,0.0740740741 L3.80555556,0.435185185 Z"></path>
                        <path fill="#603813" d="M7.4537037,0.444444444 L3.80555556,0.435185185 L3.80555556,0.0740740741 L7.21296296,0.0740740741 L7.4537037,0.444444444 Z"></path>
                    </g>
                    <rect id="Rectangle-path" fill="#5D5D5D" x="0.972222222" y="33.7592593" width="2.82407407" height="0.953703704"></rect>
                    <rect id="Rectangle-path" fill="#737474" x="5.50925926" y="33.7592593" width="3.10185185" height="0.953703704"></rect>
                    <g>
                        <g transform="translate(0.000000, 3.703704)" id="Shape">
                            <path d="M1.60185185,1.07407407 C1.7962963,1.49074074 1.66666667,1.9537037 1.31481481,2.12037037 L1.31481481,2.12037037 C0.962962963,2.27777778 0.527777778,2.07407407 0.333333333,1.66666667 L0.0925925926,1.14814815 C-0.101851852,0.731481481 0.0277777778,0.268518519 0.37962963,0.111111111 L0.37962963,0.111111111 C0.731481481,-0.0462962963 1.16666667,0.157407407 1.36111111,0.564814815 L1.60185185,1.07407407 L1.60185185,1.07407407 Z" fill="#DB8165"></path>
                            <path d="M7.7037037,0.935185185 C7.47222222,1.32407407 7.5462963,1.80555556 7.87037037,2 L7.87037037,2 C8.2037037,2.19444444 8.65740741,2.0462963 8.88888889,1.65740741 L9.18518519,1.16666667 C9.41666667,0.777777778 9.34259259,0.296296296 9.01851852,0.101851852 L9.01851852,0.101851852 C8.69444444,-0.0925925926 8.23148148,0.0555555556 8,0.444444444 L7.7037037,0.935185185 L7.7037037,0.935185185 Z" fill="#EFA584"></path>
                        </g>
                        <g transform="translate(3.425926, 7.037037)" id="Shape">
                            <path d="M1.21296296,2.13888889 L0.00925925926,2.23148148 L0.203703704,0.0740740741 L1.21296296,0.0740740741 L1.21296296,2.13888889 Z" fill="#EA9878"></path>
                            <path d="M2.63888889,2.13888889 L1.21296296,2.13888889 L1.21296296,0.0740740741 L2.35185185,0.0740740741 L2.63888889,2.13888889 Z" fill="#F7BDA6"></path>
                        </g>
                        <path id="Shape" fill="#FFCA83" d="M8.49074074,4.44444444 L8.49074074,4.44444444 C8.49074074,4.44444444 8.49074074,4.54444444 8.49074074,4.44444444 L8.49074074,4.44444444 Z"></path>
                        <g transform="translate(0.648148, 0.000000)" id="Shape">
                            <g>
                                <path d="M3.99074074,0.00925925926 L0.0555555556,1.61111111 C0.0555555556,1.61111111 -0.592592593,8.49074074 3.99074074,8.53703704 L3.99074074,0.00925925926 L3.99074074,0.00925925926 Z" fill="#EA9878"></path>
                                <path d="M3.99074074,0.00925925926 L7.92592593,1.76851852 C7.92592593,1.76851852 8.59259259,8.49074074 3.99074074,8.53703704 L3.99074074,0.00925925926 L3.99074074,0.00925925926 Z" fill="#F7BDA6"></path>
                            </g>
                            <path d="M3.50925926,3.67592593 L3.50925926,5.15740741 C3.50925926,5.41666667 3.73148148,5.62962963 3.99074074,5.62962963 C4.25,5.62962963 4.5462963,5.41666667 4.5462963,5.15740741 L3.99074074,3.67592593 L3.50925926,3.67592593 L3.50925926,3.67592593 Z" fill="#EA9878"></path>
                        </g>
                        <g transform="translate(3.055556, 6.388889)" id="Shape">
                            <path d="M1.58333333,0.342592593 C0.685185185,0.361111111 0.0277777778,0.037037037 0.0277777778,0.037037037 C0.0277777778,0.037037037 0.287037037,1.14814815 1.58333333,1.22222222 L1.58333333,0.342592593 L1.58333333,0.342592593 Z" fill="#910F0F"></path>
                            <path d="M1.58333333,0.342592593 C2.48148148,0.361111111 3.09259259,0.037037037 3.09259259,0.037037037 C3.09259259,0.037037037 2.87962963,1.14814815 1.58333333,1.22222222 L1.58333333,0.342592593 L1.58333333,0.342592593 Z" fill="#C62424"></path>
                            <path d="M1.58333333,0.287037037 C0.666666667,0.305555556 0.0277777778,0.037037037 0.0277777778,0.037037037 C0.583333333,0.583333333 1.12962963,0.740740741 1.58333333,0.722222222 C2.03703704,0.740740741 2.53703704,0.583333333 3.09259259,0.037037037 C3.09259259,0.037037037 2.49074074,0.305555556 1.58333333,0.287037037 L1.58333333,0.287037037 Z" fill="#FFFFFF"></path>
                            <path d="M1.58333333,0.287037037 C0.666666667,0.305555556 0.0277777778,0.037037037 0.0277777778,0.037037037 C0.583333333,0.583333333 1.12962963,0.740740741 1.58333333,0.722222222 L1.58333333,0.287037037 L1.58333333,0.287037037 Z" fill="#F7E7E7"></path>
                            <path d="M1.58333333,0.287037037 C2.49074074,0.305555556 3.09259259,0.037037037 3.09259259,0.037037037 C2.53703704,0.583333333 2.03703704,0.740740741 1.58333333,0.722222222 L1.58333333,0.287037037 L1.58333333,0.287037037 Z" fill="#FFFFFF"></path>
                        </g>
                        <g transform="translate(8.425926, 4.444444)" id="Shape">
                            <path fill="#68261D" d="M0.07,0 L0.07,0 C0.07,0 0.07,0.1 0.07,0 L0.07,0 Z"></path>
                            <path fill="#7C3832" d="M0.07,0 L0.07,0 C0.07,0 0.07,0.1 0.07,0 L0.07,0 Z"></path>
                        </g>
                        <g transform="translate(1.388889, 4.722222)" id="Oval" fill="#F2714E" opacity="0.4">
                            <ellipse cx="0.833333333" cy="0.898148148" rx="0.814814815" ry="0.814814815"></ellipse>
                            <ellipse cx="5.56481481" cy="0.898148148" rx="0.814814815" ry="0.814814815"></ellipse>
                        </g>
                        <g transform="translate(2.500000, 4.074074)" id="Shape" fill="#1A1A1A">
                            <path d="M0.731481481,0.564814815 C0.731481481,0.861111111 0.574074074,1.10185185 0.388888889,1.10185185 C0.194444444,1.10185185 0.0462962963,0.861111111 0.0462962963,0.564814815 C0.0462962963,0.268518519 0.203703704,0.0277777778 0.388888889,0.0277777778 C0.574074074,0.037037037 0.731481481,0.268518519 0.731481481,0.564814815 L0.731481481,0.564814815 Z"></path>
                            <path d="M4.12037037,0.564814815 C4.12037037,0.861111111 3.96296296,1.10185185 3.77777778,1.10185185 C3.58333333,1.10185185 3.43518519,0.861111111 3.43518519,0.564814815 C3.43518519,0.268518519 3.59259259,0.0277777778 3.77777778,0.0277777778 C3.96296296,0.037037037 4.12037037,0.268518519 4.12037037,0.564814815 L4.12037037,0.564814815 Z"></path>
                        </g>
                        <g transform="translate(2.222222, 3.055556)" id="Shape">
                            <path d="M0.0462962963,0.694444444 C0.0462962963,0.694444444 0.574074074,0.314814815 1.19444444,0.601851852 C1.19444444,0.601851852 1.14814815,-0.0185185185 0.62037037,0.0277777778 C0.148148148,0.0740740741 0.0462962963,0.694444444 0.0462962963,0.694444444 L0.0462962963,0.694444444 Z" fill="#BC530C"></path>
                            <path d="M4.73148148,0.694444444 C4.73148148,0.694444444 4.2037037,0.314814815 3.58333333,0.601851852 C3.58333333,0.601851852 3.62962963,-0.0185185185 4.15740741,0.0277777778 C4.62962963,0.0740740741 4.73148148,0.694444444 4.73148148,0.694444444 L4.73148148,0.694444444 Z" fill="#E07024"></path>
                        </g>
                    </g>
                    <g transform="translate(0.555556, 9.074074)" id="Shape">
                        <path d="M0.972222222,10.1111111 L4.08333333,10.1111111 L4.08333333,0.101851852 C0.0740740741,-0.305555556 0.00925925926,2.35185185 0.00925925926,2.35185185 C1.21296296,4.81481481 0.981481481,9.62037037 0.972222222,10.1111111 L0.972222222,10.1111111 Z" fill="#EA9878"></path>
                        <path d="M7.21296296,10.1111111 C7.2037037,9.62037037 6.97222222,4.81481481 8.16666667,2.35185185 C8.16666667,2.35185185 8.08333333,-0.305555556 4.07407407,0.101851852 L4.07407407,10.1111111 L7.21296296,10.1111111 L7.21296296,10.1111111 Z" fill="#F7BDA6"></path>
                    </g>
                    <path d="M6.98148148,9.33333333 C6.23148148,10.3703704 4.63888889,10.2962963 4.63888889,10.2962963 C4.63888889,10.2962963 2.97222222,10.3703704 2.22222222,9.33333333 L0.425925926,9.91666667 C0.425925926,9.91666667 0.666666667,15.4259259 0.87962963,19.1851852 L4.63888889,19.1851852 L8.32407407,19.1851852 C8.62962963,15.5555556 8.76851852,9.91666667 8.76851852,9.91666667 L6.98148148,9.33333333 L6.98148148,9.33333333 Z" id="Shape" fill="#039385"></path>
                    <g transform="translate(0.648148, 34.907407)">
                        <path d="M0.0185185185,1.91666667 L3.39814815,1.91666667 C3.39814815,1.91666667 3.65740741,0.12037037 1.87037037,0.0648148148 C-0.166666667,1.3475332e-14 0.0185185185,1.91666667 0.0185185185,1.91666667 L0.0185185185,1.91666667 Z" id="Shape" fill="#7EAFAC"></path>
                        <rect id="Rectangle-path" fill="#603813" x="0.0277777778" y="1.87962963" width="3.37962963" height="0.509259259"></rect>
                    </g>
                    <g transform="translate(5.370370, 34.907407)">
                        <path d="M0.0740740741,1.91666667 L3.4537037,1.91666667 C3.4537037,1.91666667 3.71296296,0.12037037 1.92592593,0.0648148148 C-0.111111111,1.3475332e-14 0.0740740741,1.91666667 0.0740740741,1.91666667 L0.0740740741,1.91666667 Z" id="Shape" fill="#7EAFAC"></path>
                        <rect id="Rectangle-path" fill="#603813" x="0.0833333333" y="1.87962963" width="3.37962963" height="0.509259259"></rect>
                    </g>
                    <g transform="translate(0.370370, 9.259259)" id="Shape">
                        <path d="M0.0555555556,0.657407407 C0.0555555556,0.657407407 0.296296296,6.55555556 0.509259259,10.3055556 L4.26851852,10.3055556 L4.26851852,1.03703704 C4.26851852,1.03703704 2.60185185,1.11111111 1.85185185,0.0740740741 L0.0555555556,0.657407407 L0.0555555556,0.657407407 Z" fill="#494DA1"></path>
                        <path d="M8.38888889,0.657407407 C8.38888889,0.657407407 8.25925926,6.67592593 7.94444444,10.3055556 L4.25925926,10.3055556 L4.25925926,1.03703704 C4.25925926,1.03703704 5.85185185,1.11111111 6.60185185,0.0740740741 L8.38888889,0.657407407 L8.38888889,0.657407407 Z" fill="#5B60AF"></path>
                    </g>
                </g>
                <path d="M3.2962963,12.6944444 C3.2962963,12.6944444 1.83333333,13.75 0.694444444,16.5648148 L3.50925926,17.4259259 L3.2962963,12.6944444 L3.2962963,12.6944444 Z" id="Shape" fill="#383A86"></path>
                <path d="M3.62962963,6.55555556 C3.69444444,6.38888889 3.74074074,5.57407407 4.56481481,4.61111111 C4.55555556,4.72222222 5.5462963,5.23148148 5.65740741,5.26851852 C6.11111111,5.41666667 6.69444444,5.5 6.88888889,5.01851852 C6.96296296,4.83333333 7.01851852,4.44444444 6.89814815,4.25925926 C7.2037037,4.72222222 7.91666667,5.00925926 8.49074074,5.08333333 C9.03703704,5.14814815 9.68518519,4.99074074 9.39814815,4.2962963 C9.51851852,4.2962963 10.3796296,5.48148148 11.3981481,5.10185185 C11.3796296,5.17592593 11.3240741,5.27777778 11.3240741,5.36111111 C11.3333333,5.76851852 11.25,6.31481481 11.4351852,6.68518519 C11.4444444,6.7037037 12.1296296,6.00925926 12.1759259,5.93518519 C12.3888889,5.62962963 12.5462963,5.26851852 12.6203704,4.90740741 C12.712963,4.47222222 12.8240741,3.01851852 12.0185185,3.62037037 C11.9907407,3.00925926 12.1944444,2.32407407 11.7314815,1.88888889 C11.2777778,1.47222222 10.6574074,1.47222222 10.5555556,2.15740741 C10.4444444,1.58333333 10.2777778,0.944444444 9.84259259,0.555555556 C9.26851852,0.0277777778 8.00925926,0.222222222 8.4537037,1.23148148 C8.25925926,0.787037037 8.06481481,0.12962963 7.49074074,0.0740740741 C6.89814815,0.00925925926 6.50925926,0.685185185 6.23148148,1.09259259 C6.35185185,0.777777778 6.12037037,0.416666667 5.81481481,0.324074074 C5.03703704,0.0833333333 3.19444444,2.22222222 3.58333333,2.97222222 C3,1.84259259 2.33333333,3.66666667 2.2962963,4.18518519 C2.23148148,4.96296296 2.47222222,5.96296296 3.18518519,6.46296296 C3.34259259,6.56481481 3.57407407,6.69444444 3.62962963,6.55555556 L3.62962963,6.55555556 Z" id="Shape" fill="#D9A524"></path>
                <path d="M12.0277778,3.62037037 C12,3.00925926 12.2037037,2.32407407 11.7407407,1.88888889 C11.287037,1.47222222 10.6666667,1.47222222 10.5648148,2.15740741 C10.4537037,1.58333333 10.287037,0.944444444 9.85185185,0.555555556 C9.27777778,0.0277777778 8.01851852,0.222222222 8.46296296,1.23148148 C8.26851852,0.787037037 8.07407407,0.12962963 7.5,0.0740740741 C7.49074074,0.0740740741 7.50925926,0.0740740741 7.5,0.0740740741 L7.5,4.72222222 C7.82407407,4.91666667 8.13888889,5.03703704 8.48148148,5.07407407 C9.02777778,5.13888889 9.67592593,4.98148148 9.38888889,4.28703704 C9.50925926,4.28703704 10.3703704,5.47222222 11.3888889,5.09259259 C11.3703704,5.16666667 11.3148148,5.26851852 11.3148148,5.35185185 C11.3240741,5.75925926 11.2407407,6.30555556 11.4259259,6.67592593 C11.4351852,6.69444444 12.1203704,6 12.1666667,5.92592593 C12.3796296,5.62037037 12.537037,5.25925926 12.6111111,4.89814815 C12.7314815,4.47222222 12.8333333,3.01851852 12.0277778,3.62037037 L12.0277778,3.62037037 Z" id="Shape" fill="#E0B024"></path>
                <path d="M11.1851852,22.9351852 L3.64814815,22.9166667 L3.64814815,21.9166667 L11.25,21.9166667 L11.1851852,22.9351852 Z" id="Shape" fill="#42210B"></path>
                <path d="M3.64814815,22.9166667 L3.66666667,24.7962963 C3.66666667,24.7962963 5.41666667,23.7407407 5.57407407,22.7592593 L3.64814815,22.9166667 L3.64814815,22.9166667 Z" id="Shape" fill="#5D5D5D"></path>
                <path d="M11.1759259,22.75 L11.212963,24.6666667 C11.212963,24.6666667 9.44444444,23.6574074 9.25,22.6759259 L11.1759259,22.75 L11.1759259,22.75 Z" id="Shape" fill="#737474"></path>
                <path d="M7.50925926,21.9166667 L7.50925926,22.9166667 L11.1944444,22.9444444 L11.25,21.9166667 L7.50925926,21.9166667 Z" id="Shape" fill="#59341B"></path>
                <path d="M8.03703707,22.5165794 C8.03703707,22.6403432 7.89713014,22.7425829 7.724937,22.7425829 L7.32135933,22.7425829 C7.14916619,22.7425829 7.00925926,22.6403432 7.00925926,22.5165794 L7.00925926,22.2260035 C7.00925926,22.1022397 7.14916619,22 7.32135933,22 L7.724937,22 C7.89713014,22 8.03703707,22.1022397 8.03703707,22.2260035 L8.03703707,22.5165794 L8.03703707,22.5165794 Z" id="Shape" fill="#F2B451"></path>
            </g>
            <g id="Gloover-2-Copy" transform="translate(381.000000, 150.000000)" sketch:type="MSShapeGroup">
                <path d="M8.77872553,30.633387 C9.069733,32.6704393 9.030932,36.6378412 9.30253898,40.0814297 L11.3201908,40.0814297 L11.4559943,30.633387 L8.77872553,30.633387 L8.77872553,30.633387 Z" id="Shape" fill="#E09B7E"></path>
                <path d="M13.1535379,30.633387 C13.4445454,32.6704393 13.4057444,36.6378412 13.6773514,40.0814297 L15.6950032,40.0814297 L15.8308067,30.633387 L13.1535379,30.633387 L13.1535379,30.633387 Z" id="Shape" fill="#E09B7E"></path>
                <g id="Group" transform="translate(8.245212, 22.989591)">
                    <path d="M7.97360484,1.2610324 C7.97360484,1.19313065 7.97360484,1.13492916 7.96390459,1.07672766 C7.96390459,1.03792666 7.96390459,1.05732716 7.96390459,1.07672766 L7.33338839,0.97002492 L7.26548665,1.06702741 L4.15170666,1.00882592 L1.06702741,1.06702741 L1.00882592,0.979725169 L0.174604486,1.08642791 C0.174604486,1.06702741 0.174604486,1.04762691 0.174604486,1.08642791 L0.174604486,1.11552866 C0.106702741,3.33688572 -0.0388009968,6.35366323 0.261906728,10.1755614 L3.59879245,10.1755614 L3.87039943,5.28663581 C3.96740192,5.30603631 4.05470417,5.31573656 4.14200641,5.31573656 C4.20990815,5.31573656 4.28751015,5.30603631 4.35541189,5.29633606 L4.73372161,10.1755614 L7.96390459,10.1755614 C8.28401282,6.43126522 8.05120684,3.47268921 7.97360484,1.2610324 L7.97360484,1.2610324 Z" id="Shape" fill="#754C24"></path>
                    <g transform="translate(0.097002, 0.970025)" id="Shape">
                        <path d="M0.0873022428,0.106702741 C0.0873022428,0.203705233 0.097002492,0.0194004984 0.0873022428,0.106702741 C-0.048501246,1.63934211 2.58026629,4.2972104 4.06440441,4.32631114 L4.06440441,0.0291007476 L0.0873022428,0.106702741 L0.0873022428,0.106702741 Z" fill="#603813"></path>
                        <path d="M7.87660235,0.106702741 L4.06440441,0.0291007476 L4.06440441,4.32631114 C5.54854254,4.2972104 8.04150659,1.63934211 7.87660235,0.106702741 C7.8669021,0.0194004984 7.87660235,0.203705233 7.87660235,0.106702741 L7.87660235,0.106702741 Z" fill="#754C24"></path>
                    </g>
                    <path d="M0.184304735,1.07672766 C0.11640299,3.29808473 -0.0291007476,6.32456248 0.271606978,10.1561609 L3.6084927,10.1561609 L3.88979993,5.22843432 L1.01852617,0.97002492 L0.184304735,1.07672766 L0.184304735,1.07672766 Z" id="Shape" fill="#603813"></path>
                    <path d="M7.34308864,0.97002492 L4.37481239,5.22843432 L4.75312211,10.1561609 L7.98330509,10.1561609 C8.28401282,6.32456248 8.04150659,3.29808473 7.96390459,1.07672766 L7.34308864,0.97002492 L7.34308864,0.97002492 Z" id="Shape" fill="#754C24"></path>
                    <path d="M7.72139836,0.0873022428 L4.16140691,0.0873022428 L0.494712709,0.106702741 L0.184304735,1.07672766 L4.16140691,1.06702741 L7.97360484,1.07672766 L7.72139836,0.0873022428 Z" id="Shape" fill="#603813"></path>
                    <g transform="translate(0.097002, 0.000000)" id="Shape">
                        <path d="M4.06440441,1.06702741 L0.0873022428,1.07672766 L0.397710217,0.106702741 L4.06440441,0.0873022428 L4.06440441,1.06702741 Z" fill="#42210B"></path>
                        <path d="M7.87660235,1.07672766 L4.06440441,1.06702741 L4.06440441,0.0873022428 L7.62439587,0.0873022428 L7.87660235,1.07672766 Z" fill="#603813"></path>
                    </g>
                </g>
                <rect id="Rectangle-path" fill="#42210B" x="8.35191456" y="32.3697316" width="3.65699395" height="0.999125667"></rect>
                <rect id="Rectangle-path" fill="#603813" x="12.8140292" y="32.3697316" width="3.65699395" height="0.999125667"></rect>
                <g id="Group" transform="translate(1.126294, 6.402164)">
                    <g transform="translate(2.000000, 7.276298)" id="Shape" fill="#EA9878">
                        <path d="M1.52793097,3.89237404 C2.78396878,0.877633734 5.44523893,0.553227369 5.44523893,0.553227369 L6.57660586,1.93478052 C1.72575056,4.1233568 2.18585252,9.2996847 2.18585252,9.2996847 L0.831454516,9.18415849 C0.597939103,7.04609221 0.944963978,5.29161065 1.52793097,3.89237404 Z"></path>
                    </g>
                    <g transform="translate(0.294653, 0.000000)">
                        <path d="M20.0977831,3.19784163 L21.1730341,3.90715039 C18.932175,10.1759061 13.5107416,10.4922195 13.5107416,10.4922195 L13.3390629,7.71249601 C18.2996744,7.9617126 20.0977831,3.19784163 20.0977831,3.19784163 L20.0977831,3.19784163 Z" id="Shape" fill="#F7BDA6"></path>
                        <path d="M19.857632,2.73179724 C19.7401676,3.26857143 19.9750964,3.84368664 20.7431328,4.02580645 C21.0142045,4.09290323 21.3937048,3.99705069 21.9268124,3.36442396 L21.9268124,3.35483871 C22.4689558,2.760553 23.2369921,1.71576037 23.0653134,1.50488479 C22.9026704,1.30359447 22.4057057,1.70617512 22.1978841,1.98414747 C22.45992,1.53364055 22.9297776,0.929769585 22.721956,0.728479263 C22.5050986,0.517603687 21.9810268,1.32276498 21.6918836,1.76368664 C21.9539196,1.24608295 22.5954559,0.373824885 22.2792056,0.143778802 C22.0262054,-0.0287557604 21.5021335,0.901013825 21.2400975,1.399447 C21.4027405,0.881843318 21.8003123,0.210875576 21.5382764,0.0479262673 C21.158776,-0.182119816 20.7250614,1.20774194 20.5262755,1.74451613 C20.5714541,1.51447005 20.670847,0.920184332 20.5985612,0.843502304 C20.3726682,0.623041475 20.3274896,0.785990783 20.1919537,1.14064516 C20.0473822,1.51447005 19.8214891,2.21419355 19.857632,2.73179724 L19.857632,2.73179724 Z" id="Shape" fill="#F7BDA6"></path>
                        <path d="M1.80972268,18.9850958 C1.69225829,19.52187 1.92718707,20.0969852 2.69522346,20.279105 C2.96629513,20.3462018 3.34579547,20.2503493 3.87890308,19.6177225 L3.87890308,19.6081373 C4.42104642,19.0138516 5.18908281,17.9690589 5.01740409,17.7581834 C4.85476109,17.556893 4.35779636,17.9594737 4.14997475,18.237446 C4.4120107,17.7869391 4.88186825,17.1830682 4.67404664,16.9817778 C4.45718931,16.7709023 3.93311742,17.5760635 3.6439743,18.0169852 C3.90601025,17.4993815 4.54754653,16.6271235 4.23129625,16.3970774 C3.97829603,16.2245428 3.45422413,17.1543124 3.19218819,17.6527456 C3.35483119,17.1351419 3.75240297,16.4641741 3.49036702,16.3012248 C3.11086669,16.0711788 2.67715202,17.4610405 2.47836613,17.9978147 C2.52354474,17.7677686 2.62293769,17.1734829 2.55065191,17.0968009 C2.32475885,16.87634 2.27958024,17.0392893 2.1440444,17.3939437 C1.99947285,17.7677686 1.77357979,18.4674921 1.80972268,18.9850958 L1.80972268,18.9850958 Z" id="Shape-Copy" fill="#EA9878" transform="translate(3.411522, 18.286560) rotate(-219.000000) translate(-3.411522, -18.286560) "></path>
                    </g>
                </g>
                <g id="Group" transform="translate(7.554717, 0.000000)">
                    <g transform="translate(0.000000, 7.456604)" id="Shape">
                        <path d="M1.76603774,1.15773585 C1.97207547,1.59924528 1.83471698,2.08981132 1.46188679,2.26641509 L1.46188679,2.26641509 C1.0890566,2.43320755 0.627924528,2.21735849 0.421886792,1.78566038 L0.166792453,1.23622642 C-0.039245283,0.794716981 0.0981132075,0.304150943 0.470943396,0.137358491 L0.470943396,0.137358491 C0.843773585,-0.0294339623 1.30490566,0.186415094 1.5109434,0.618113208 L1.76603774,1.15773585 L1.76603774,1.15773585 Z" fill="#D88D73"></path>
                        <path d="M8.23169811,1.01056604 C7.98641509,1.42264151 8.06490566,1.93283019 8.40830189,2.13886792 L8.40830189,2.13886792 C8.76150943,2.34490566 9.24226415,2.18792453 9.48754717,1.77584906 L9.80150943,1.25584906 C10.0467925,0.843773585 9.96830189,0.333584906 9.62490566,0.12754717 L9.62490566,0.12754717 C9.28150943,-0.078490566 8.7909434,0.078490566 8.54566038,0.490566038 L8.23169811,1.01056604 L8.23169811,1.01056604 Z" fill="#EFA584"></path>
                    </g>
                    <g transform="translate(3.826415, 11.086792)" id="Rectangle-path">
                        <rect fill="#EA9878" x="0.0883018868" y="0" width="1.07924528" height="2.6"></rect>
                        <rect fill="#F7BDA6" x="1.16754717" y="0" width="1.19698113" height="2.6"></rect>
                    </g>
                    <g transform="translate(0.490566, 0.000000)" id="Shape" fill="#FFCA83">
                        <path d="M8.57509434,8.26113208 L8.57509434,8.26113208 C8.57509434,8.26113208 8.57509434,8.39113208 8.57509434,8.26113208 L8.57509434,8.26113208 Z"></path>
                        <path d="M8.56528302,2.78641509 C8.24150943,1.85433962 7.60377358,1.03018868 7.28981132,0.078490566 C7.25056604,0.107924528 7.21132075,0.147169811 7.17207547,0.176603774 C7.16226415,0.186415094 7.15245283,0.196226415 7.13283019,0.206037736 C7.10339623,0.225660377 7.07396226,0.25509434 7.03471698,0.274716981 C7.02490566,0.284528302 7.01509434,0.294339623 6.9954717,0.304150943 C6.95622642,0.333584906 6.90716981,0.363018868 6.85811321,0.382641509 C6.85811321,0.382641509 6.84830189,0.382641509 6.84830189,0.39245283 C6.8090566,0.412075472 6.76,0.441509434 6.72075472,0.461132075 C6.70113208,0.470943396 6.69132075,0.480754717 6.67169811,0.480754717 C6.63245283,0.500377358 6.60301887,0.52 6.56377358,0.529811321 C6.55396226,0.539622642 6.53433962,0.539622642 6.5245283,0.549433962 C6.4754717,0.569056604 6.42641509,0.598490566 6.36754717,0.618113208 C6.35773585,0.618113208 6.34792453,0.627924528 6.33811321,0.627924528 C6.29886792,0.64754717 6.24981132,0.667169811 6.20075472,0.676981132 C6.18113208,0.686792453 6.16150943,0.686792453 6.14188679,0.696603774 C6.10264151,0.706415094 6.06339623,0.726037736 6.02415094,0.735849057 C6.0045283,0.745660377 5.99471698,0.745660377 5.97509434,0.755471698 C5.92603774,0.77509434 5.86716981,0.794716981 5.80830189,0.804528302 C5.78867925,0.814339623 5.77886792,0.814339623 5.75924528,0.814339623 C5.72,0.824150943 5.68075472,0.843773585 5.63169811,0.853584906 C5.61207547,0.863396226 5.58264151,0.863396226 5.56301887,0.873207547 C5.52377358,0.883018868 5.49433962,0.892830189 5.45509434,0.902641509 C5.4354717,0.91245283 5.40603774,0.91245283 5.38641509,0.922264151 C5.33735849,0.932075472 5.27849057,0.951698113 5.22943396,0.961509434 C5.2,0.971320755 5.16075472,0.981132075 5.13132075,0.990943396 C5.11169811,1.00075472 5.08226415,1.00075472 5.06264151,1.01056604 C5.02339623,1.02037736 4.98415094,1.03018868 4.94490566,1.04 L4.93509434,1.04 C4.23849057,1.21660377 3.54188679,1.37358491 2.99245283,1.6090566 C0.0490566038,2.85509434 -0.441509434,5.86716981 0.470943396,8.72226415 C0.470943396,8.72226415 0.451320755,8.64377358 0.608301887,6.57358491 C0.716226415,5.06264151 2.62943396,4.28754717 4.49358491,4.27773585 L4.49358491,4.27773585 C5.14113208,4.27773585 5.72981132,4.36603774 6.30867925,4.54264151 L6.30867925,4.54264151 C6.35773585,4.56226415 6.41660377,4.57207547 6.46566038,4.59169811 L6.46566038,4.59169811 C6.51471698,4.61132075 6.56377358,4.6309434 6.61283019,4.65056604 L6.62264151,4.65056604 C6.67169811,4.67018868 6.72075472,4.68981132 6.76,4.70943396 L6.76981132,4.70943396 C6.81886792,4.7290566 6.85811321,4.74867925 6.89735849,4.76830189 C6.89735849,4.76830189 6.90716981,4.76830189 6.90716981,4.77811321 C6.94641509,4.79773585 6.9954717,4.81735849 7.03471698,4.83698113 C7.0445283,4.83698113 7.0445283,4.84679245 7.05433962,4.84679245 C7.09358491,4.86641509 7.13283019,4.88603774 7.17207547,4.9154717 C7.18188679,4.9154717 7.18188679,4.92528302 7.19169811,4.92528302 C7.2309434,4.94490566 7.27018868,4.97433962 7.29962264,4.99396226 C7.30943396,4.99396226 7.30943396,5.00377358 7.31924528,5.00377358 C7.35849057,5.02339623 7.38792453,5.05283019 7.41735849,5.07245283 C7.42716981,5.08226415 7.42716981,5.08226415 7.43698113,5.08226415 C7.46641509,5.10188679 7.50566038,5.13132075 7.53509434,5.1509434 C7.54490566,5.16075472 7.55471698,5.16075472 7.55471698,5.17056604 C7.58415094,5.19018868 7.61358491,5.21962264 7.64301887,5.23924528 C7.65283019,5.2490566 7.66264151,5.2490566 7.66264151,5.25886792 C7.69207547,5.28830189 7.72150943,5.30792453 7.74113208,5.33735849 C7.7509434,5.34716981 7.76075472,5.34716981 7.76075472,5.35698113 C7.79018868,5.38641509 7.80981132,5.40603774 7.83924528,5.4354717 L7.85886792,5.45509434 C7.87849057,5.4845283 7.90792453,5.51396226 7.92754717,5.53358491 C7.93735849,5.54339623 7.93735849,5.55320755 7.94716981,5.56301887 C7.96679245,5.59245283 7.98641509,5.62188679 8.00603774,5.65132075 C8.01584906,5.66113208 8.01584906,5.6709434 8.02566038,5.68075472 C8.04528302,5.71018868 8.06490566,5.73962264 8.0845283,5.7690566 C8.09433962,5.77886792 8.09433962,5.78867925 8.10415094,5.79849057 C8.12377358,5.82792453 8.14339623,5.85735849 8.15320755,5.88679245 C8.16301887,5.89660377 8.16301887,5.90641509 8.17283019,5.91622642 C8.19245283,5.94566038 8.20226415,5.97509434 8.22188679,6.01433962 C8.22188679,6.02415094 8.23169811,6.03396226 8.23169811,6.04377358 C8.24150943,6.07320755 8.26113208,6.11245283 8.2709434,6.15169811 C8.2709434,6.16150943 8.28075472,6.17132075 8.28075472,6.18113208 C8.29056604,6.22037736 8.30037736,6.25962264 8.31018868,6.2890566 C8.31018868,6.29886792 8.32,6.30867925 8.32,6.30867925 C8.32981132,6.34792453 8.33962264,6.38716981 8.34943396,6.42641509 L8.34943396,6.44603774 C8.35924528,6.49509434 8.3690566,6.54415094 8.3690566,6.59320755 C8.51622642,7.92754717 8.53584906,8.18264151 8.54566038,8.22188679 C8.56528302,8.15320755 8.77132075,7.35849057 8.81056604,6.33811321 L8.83018868,6.35773585 C9.03622642,4.6309434 8.80075472,3.45358491 8.56528302,2.78641509 L8.56528302,2.78641509 Z"></path>
                    </g>
                    <g transform="translate(0.686792, 3.532075)" id="Shape">
                        <g>
                            <path d="M4.30716981,0.0294339623 L0.12754717,1.72679245 C0.12754717,1.72679245 -0.549433962,9.22264151 4.30716981,9.27169811 L4.30716981,0.0294339623 L4.30716981,0.0294339623 Z" fill="#EA9878"></path>
                            <path d="M4.30716981,0.196226415 L8.46716981,1.89358491 C8.46716981,1.89358491 9.18339623,9.21283019 4.30716981,9.27169811 L4.30716981,0.196226415 L4.30716981,0.196226415 Z" fill="#F7BDA6"></path>
                        </g>
                        <path d="M3.78716981,3.91471698 L3.78716981,5.4845283 C3.78716981,5.75924528 4.03245283,5.98490566 4.30716981,5.98490566 C4.58188679,5.98490566 4.88603774,5.75924528 4.88603774,5.4845283 L4.30716981,3.91471698 L3.78716981,3.91471698 L3.78716981,3.91471698 Z" fill="#EA9878"></path>
                    </g>
                    <g transform="translate(3.335849, 10.301887)" id="Shape">
                        <path d="M1.65811321,0.382641509 C0.706415094,0.402264151 0,0.0588679245 0,0.0588679245 C0,0.0588679245 0.294339623,1.23622642 1.65811321,1.31471698 L1.65811321,0.382641509 L1.65811321,0.382641509 Z" fill="#910F0F"></path>
                        <path d="M1.65811321,0.382641509 C2.60981132,0.402264151 3.24754717,0.0588679245 3.24754717,0.0588679245 C3.24754717,0.0588679245 3.03169811,1.23622642 1.65811321,1.31471698 L1.65811321,0.382641509 L1.65811321,0.382641509 Z" fill="#C62424"></path>
                        <path d="M1.65811321,0.323773585 C0.686792453,0.343396226 0,0.0588679245 0,0.0588679245 C0.588679245,0.637735849 1.17735849,0.804528302 1.65811321,0.78490566 C2.13886792,0.804528302 2.6490566,0.637735849 3.24754717,0.0588679245 C3.24754717,0.0588679245 2.61962264,0.333584906 1.65811321,0.323773585 L1.65811321,0.323773585 Z" fill="#FFFFFF"></path>
                        <path d="M1.65811321,0.323773585 C0.686792453,0.343396226 0,0.0588679245 0,0.0588679245 C0.588679245,0.637735849 1.17735849,0.804528302 1.65811321,0.78490566 L1.65811321,0.323773585 L1.65811321,0.323773585 Z" fill="#F7E7E7"></path>
                        <path d="M1.65811321,0.323773585 C2.61962264,0.343396226 3.24754717,0.0588679245 3.24754717,0.0588679245 C2.65886792,0.637735849 2.13886792,0.804528302 1.65811321,0.78490566 L1.65811321,0.323773585 L1.65811321,0.323773585 Z" fill="#FFFFFF"></path>
                    </g>
                    <g transform="translate(0.490566, 0.000000)" id="Shape">
                        <g>
                            <path fill="#68261D" d="M8.57509434,8.26113208 L8.57509434,8.26113208 C8.57509434,8.26113208 8.57509434,8.39113208 8.57509434,8.26113208 L8.57509434,8.26113208 Z"></path>
                            <path d="M8.84981132,6.38716981 C9.02641509,4.6309434 8.7909434,3.45358491 8.56528302,2.78641509 C8.24150943,1.85433962 7.60377358,1.03018868 7.28981132,0.078490566 C6.30867925,0.961509434 4.27773585,1.0890566 3.00226415,1.62867925 C0.0588679245,2.87471698 -0.431698113,5.88679245 0.480754717,8.74188679 C0.480754717,8.74188679 0.461132075,8.66339623 0.618113208,6.59320755 C0.843773585,3.55169811 8.05509434,3.51245283 8.39849057,6.63245283 C8.54566038,7.96679245 8.56528302,8.22188679 8.57509434,8.26113208 C8.59471698,8.19245283 8.80075472,7.39773585 8.84,6.37735849 L8.84981132,6.38716981 L8.84981132,6.38716981 Z" fill="#3F0E03"></path>
                        </g>
                        <g transform="translate(4.415094, 0.000000)">
                            <path fill="#7C3832" d="M4.16,8.26113208 L4.16,8.26113208 C4.16,8.26113208 4.16,8.39113208 4.16,8.26113208 L4.16,8.26113208 Z"></path>
                            <path d="M4.15018868,2.78641509 C3.82641509,1.85433962 3.18867925,1.03018868 2.87471698,0.078490566 C2.21735849,0.667169811 1.13811321,0.922264151 0.078490566,1.18716981 L0.078490566,4.28754717 C1.96226415,4.27773585 3.79698113,5.05283019 3.97358491,6.62264151 C4.12075472,7.95698113 4.14037736,8.21207547 4.15018868,8.25132075 C4.16981132,8.18264151 4.37584906,7.38792453 4.41509434,6.36754717 L4.43471698,6.38716981 C4.62113208,4.6309434 4.38566038,3.45358491 4.15018868,2.78641509 L4.15018868,2.78641509 Z" fill="#68261D"></path>
                        </g>
                    </g>
                    <g transform="translate(1.471698, 8.633962)" id="Oval" fill="#F2714E" opacity="0.4">
                        <ellipse cx="0.951698113" cy="0.863396226" rx="0.863396226" ry="0.863396226"></ellipse>
                        <ellipse cx="5.96528302" cy="0.863396226" rx="0.863396226" ry="0.863396226"></ellipse>
                    </g>
                    <g transform="translate(2.747170, 7.849057)" id="Shape" fill="#1A1A1A">
                        <path d="M0.745660377,0.618113208 C0.745660377,0.932075472 0.578867925,1.18716981 0.382641509,1.18716981 C0.176603774,1.18716981 0.0196226415,0.932075472 0.0196226415,0.618113208 C0.0196226415,0.304150943 0.186415094,0.0490566038 0.382641509,0.0490566038 C0.578867925,0.0490566038 0.745660377,0.304150943 0.745660377,0.618113208 L0.745660377,0.618113208 Z"></path>
                        <path d="M4.33660377,0.618113208 C4.33660377,0.932075472 4.16981132,1.18716981 3.97358491,1.18716981 C3.76754717,1.18716981 3.61056604,0.932075472 3.61056604,0.618113208 C3.61056604,0.304150943 3.77735849,0.0490566038 3.97358491,0.0490566038 C4.16981132,0.0490566038 4.33660377,0.304150943 4.33660377,0.618113208 L4.33660377,0.618113208 Z"></path>
                    </g>
                    <g transform="translate(2.452830, 6.769811)" id="Shape">
                        <path d="M0.0196226415,0.755471698 C0.0196226415,0.755471698 0.578867925,0.353207547 1.23622642,0.657358491 C1.23622642,0.657358491 1.18716981,2.19962937e-15 0.627924528,0.0490566038 C0.12754717,0.0883018868 0.0196226415,0.755471698 0.0196226415,0.755471698 L0.0196226415,0.755471698 Z" fill="#42210B"></path>
                        <path d="M4.98415094,0.755471698 C4.98415094,0.755471698 4.42490566,0.353207547 3.76754717,0.657358491 C3.76754717,0.657358491 3.81660377,2.19962937e-15 4.37584906,0.0490566038 C4.87622642,0.0883018868 4.98415094,0.755471698 4.98415094,0.755471698 L4.98415094,0.755471698 Z" fill="#603813"></path>
                    </g>
                </g>
                <g id="Group" transform="translate(7.947170, 13.539623)">
                    <path d="M1.29509434,10.1350943 L4.60150943,10.1350943 L4.60150943,0.137358491 C0.353207547,-0.294339623 0.078490566,2.52150943 0.078490566,2.52150943 C1.34415094,5.13132075 1.29509434,9.61509434 1.29509434,10.1350943 L1.29509434,10.1350943 Z" id="Shape" fill="#EA9878"></path>
                    <path d="M7.90792453,10.1350943 C7.89811321,9.61509434 7.85886792,5.13132075 9.1245283,2.52150943 C9.1245283,2.52150943 8.84981132,-0.294339623 4.60150943,0.137358491 L4.60150943,10.1350943 L7.90792453,10.1350943 L7.90792453,10.1350943 Z" id="Shape" fill="#F7BDA6"></path>
                </g>
                <path id="Shape" fill="#EA9878" d="M0,8.51718029 C0.0433333333,8.55569881 0.0866666667,8.59421733 0.13,8.63273585 C0.13,8.51718029 0.0866666667,8.47866177 0,8.51718029 L0,8.51718029 Z"></path>
                <g id="Group" transform="translate(5.101887, 13.147170)">
                    <g transform="translate(0.000000, 0.686792)">
                        <path d="M0.655154588,1.86806096 L2.5050034,3.63287604 L2.79119294,3.17578969 C2.79119294,3.17578969 3.57856221,6.24387658 3.45101504,9.84463129 L7.44422258,9.84463129 L7.44422258,1.03406526 C7.44422258,1.03406526 5.65204267,1.09886792 4.85732568,3.55271368e-15 C4.85732568,3.55271368e-15 3.59619217,0.125799459 3.08456249,0.125799459 C2.57293281,0.125799459 2.15114994,0.185104826 1.68212,0.506152041 C1.21309006,0.827199257 0.655154588,1.86806096 0.655154588,1.86806096 Z" id="Shape" fill="#494DA1"></path>
                        <path d="M2.29575713,3.99770616 L0.0935739985,1.88071809 L0.793926914,1.1521805 L2.99611005,3.26916858 L2.29575713,3.99770616 L2.29575713,3.99770616 Z" id="Rectangle-path" fill="#383A86"></path>
                    </g>
                    <g transform="translate(7.358491, 0.000000)">
                        <path d="M5.26867925,3.23773585 L4.61132075,3.6890566 C4.61132075,3.6890566 3.84603774,6.92679245 3.97358491,10.5275472 L0.078490566,10.5275472 L0.078490566,1.71698113 C0.078490566,1.71698113 1.75622642,1.7954717 2.54113208,0.696603774 L4.66037736,0.402264151 L5.26867925,3.23773585 Z" id="Shape" fill="#5B60AF"></path>
                        <path d="M4.41512966,0.262517585 L5.39184174,0.00310528302 L6.25319132,3.24616868 L5.27647925,3.50558098 L4.41512966,0.262517585 L4.41512966,0.262517585 Z" id="Rectangle-path" fill="#494DA1"></path>
                    </g>
                </g>
                <g id="Group" transform="translate(8.437736, 40.030189)">
                    <path d="M0.0981132075,2.0309434 L3.67924528,2.0309434 C3.67924528,2.0309434 3.95396226,0.12754717 2.06037736,0.0686792453 C-0.107924528,1.43773882e-14 0.0981132075,2.0309434 0.0981132075,2.0309434 L0.0981132075,2.0309434 Z" id="Shape" fill="#9D9D9D"></path>
                    <rect id="Rectangle-path" fill="#603813" x="0.0981132075" y="1.99169811" width="3.58113208" height="0.539622642"></rect>
                </g>
                <g id="Group" transform="translate(13.049057, 40.030189)">
                    <path d="M0.039245283,2.0309434 L3.62037736,2.0309434 C3.62037736,2.0309434 3.89509434,0.12754717 2.00150943,0.0686792453 C-0.156981132,1.43773882e-14 0.039245283,2.0309434 0.039245283,2.0309434 L0.039245283,2.0309434 Z" id="Shape" fill="#9D9D9D"></path>
                    <rect id="Rectangle-path" fill="#603813" x="0.0490566038" y="1.99169811" width="3.58113208" height="0.539622642"></rect>
                </g>
                <g id="Logo-Copy-4" transform="translate(8.633962, 15.698113)" fill="#FFFFFF">
                    <g id="fashion">
                        <g id="Capa_1">
                            <g id="Group">
                                <path id="Shape" d="M0.213900156,0.431669186 C0.185694894,0.403320833 0.18658354,0.358049228 0.215879299,0.330751432 C0.245362142,0.303284498 0.292049259,0.30441605 0.320156056,0.332669114 L0.320813309,0.333328988 L0.302336377,0.181579539 C0.297578062,0.142494545 0.326563657,0.106949522 0.366939176,0.102347083 C0.369287563,0.102077893 0.371663028,0.101946871 0.374026185,0.101896845 L0.376980131,0.0683147665 C0.378705728,0.0487043763 0.363675066,0.0314523786 0.343410996,0.0297824462 C0.323159234,0.0281125138 0.305319862,0.0426583158 0.303594265,0.0622687059 L0.293282532,0.179495101 C0.29264251,0.186760856 0.281412592,0.186312999 0.281412592,0.179006747 L0.281412592,0.0356379296 C0.281412592,0.015956073 0.26492465,0 0.244586732,0 C0.224248813,0 0.207760871,0.015956073 0.207760871,0.0356379296 L0.207760871,0.176746026 C0.207760871,0.182692033 0.198665179,0.183218503 0.197943924,0.177303464 L0.183993914,0.0627475311 C0.181613525,0.0432014607 0.163308906,0.0292154792 0.1431113,0.0315238451 C0.122911233,0.0338274465 0.108468898,0.0515415939 0.110846825,0.0710900464 L0.139601028,0.307248503 C0.140425671,0.314021139 0.131849381,0.317942264 0.126965524,0.31303252 L0.0653954419,0.251144968 C0.0512903496,0.236968409 0.0279787922,0.236537229 0.0133272199,0.2501897 C-0.00132435247,0.26383979 -0.00176744438,0.286399361 0.0123401096,0.300578302 C0.176404734,0.465489486 0.181022736,0.465451371 0.185207493,0.46802178 C0.17462252,0.469951374 0.166612403,0.478932323 0.166612403,0.489735666 L0.166612403,0.547466253 C0.166612403,0.559677485 0.176842903,0.569577968 0.189461175,0.569577968 L0.351101102,0.569577968 C0.337239711,0.555644396 0.22872158,0.446565174 0.213900156,0.431669186 L0.213900156,0.431669186 Z"></path>
                                <path id="Shape"></path>
                            </g>
                        </g>
                    </g>
                </g>
            </g>
            <g id="Logo-Copy-3" transform="translate(352.000000, 160.000000)" fill="#FFFFFF">
                <g id="fashion" sketch:type="MSShapeGroup">
                    <g id="Capa_1">
                        <g id="Group">
                            <path d="M0.311448029,0.62852931 C0.270379928,0.587252862 0.271673835,0.521335414 0.314329749,0.481588623 C0.357258065,0.44159556 0.425236559,0.443243149 0.46616129,0.484380853 L0.46711828,0.485341658 L0.440215054,0.26438779 C0.433286738,0.207478321 0.475491039,0.155723205 0.53427957,0.149021852 C0.537698925,0.148629899 0.541157706,0.148439126 0.544598566,0.148366285 L0.548899642,0.0994693028 C0.551412186,0.0709157128 0.529526882,0.0457960458 0.500021505,0.0433645508 C0.47053405,0.0409330558 0.44455914,0.0621123829 0.442046595,0.0906659729 L0.427032258,0.261352758 C0.426100358,0.271932015 0.409749104,0.271279917 0.409749104,0.260641693 L0.409749104,0.051890392 C0.409749104,0.0232327437 0.385741935,0 0.356129032,0 C0.326516129,0 0.302508961,0.0232327437 0.302508961,0.051890392 L0.302508961,0.257349983 C0.302508961,0.266007631 0.289265233,0.266774194 0.288215054,0.258161637 L0.267903226,0.0913631634 C0.264437276,0.0629032258 0.237784946,0.0425390219 0.208376344,0.0459001041 C0.178964158,0.049254249 0.157935484,0.0750468262 0.161397849,0.103510232 L0.203265233,0.447367326 C0.20446595,0.457228581 0.191978495,0.462937912 0.184867384,0.455789109 L0.095218638,0.365678113 C0.0746810036,0.34503642 0.0407383513,0.344408602 0.0194050179,0.364287201 C-0.00192831541,0.384162331 -0.0025734767,0.417010059 0.0179677419,0.43765522 C0.256853047,0.677773153 0.263577061,0.677717655 0.269670251,0.681460284 C0.254258065,0.684269858 0.242594982,0.697346514 0.242594982,0.713076656 L0.242594982,0.797134929 C0.242594982,0.814915019 0.257491039,0.829330558 0.275863799,0.829330558 L0.511218638,0.829330558 C0.491035842,0.809042664 0.333028674,0.650218522 0.311448029,0.62852931 L0.311448029,0.62852931 Z" id="Shape"></path>
                            <path d="M0.940354839,0.641911204 L0.998616487,0.365737079 C1.00400358,0.340190773 0.98697491,0.315254943 0.960573477,0.310038155 C0.934193548,0.304852584 0.908408602,0.321311134 0.903017921,0.346853972 L0.879792115,0.456954561 C0.877702509,0.466853972 0.862612903,0.46458897 0.863487455,0.454679154 L0.88111828,0.254255983 C0.883630824,0.225702393 0.86174552,0.200582726 0.832240143,0.198151231 C0.802741935,0.195719736 0.776777778,0.216902532 0.774265233,0.245452653 L0.759250896,0.416139438 C0.758308244,0.426829691 0.741967742,0.426066597 0.741967742,0.415428373 L0.741967742,0.206680541 C0.741967742,0.178022893 0.717960573,0.154790149 0.68834767,0.154790149 C0.658734767,0.154790149 0.634727599,0.178022893 0.634727599,0.206680541 L0.634727599,0.412140132 C0.634727599,0.420811655 0.621491039,0.421637183 0.620433692,0.412951786 L0.600125448,0.246153313 C0.596659498,0.217700312 0.570010753,0.197329171 0.540594982,0.200690253 C0.51118638,0.204044398 0.490154122,0.229836975 0.493620072,0.258300382 L0.535487455,0.602157475 C0.536695341,0.612081165 0.524154122,0.617679501 0.517089606,0.610579258 L0.42744086,0.520468262 C0.40690681,0.499830038 0.372964158,0.499195283 0.35162724,0.519073881 C0.330293907,0.53895248 0.329648746,0.571800208 0.350189964,0.592441901 C0.350189964,0.592441901 0.595795699,0.832504336 0.601888889,0.836246965 C0.586480287,0.839060007 0.574817204,0.852133195 0.574817204,0.867863337 L0.574817204,0.951921609 C0.574817204,0.9697017 0.589713262,0.984117239 0.608086022,0.984117239 L0.924175627,0.984117239 C0.942548387,0.984117239 0.957444444,0.9697017 0.957444444,0.951921609 L0.957444444,0.867863337 C0.957444444,0.852043011 0.945645161,0.838917794 0.930103943,0.836205342 C0.936530466,0.827648283 0.940365591,0.817152272 0.940365591,0.805764828 L0.940365591,0.641911204 L0.940354839,0.641911204 Z M0.902946237,1.00618453 C0.866125694,1.00618453 0.83627957,0.976338406 0.83627957,0.939517863 C0.83627957,0.902697321 0.866125694,0.872851197 0.902946237,0.872851197 C0.939766779,0.872851197 0.969612903,0.902697321 0.969612903,0.939517863 C0.969612903,0.976338406 0.939760327,1.00618453 0.902946237,1.00618453 L0.902946237,1.00618453 Z" id="Shape"></path>
                        </g>
                    </g>
                </g>
                <text id="Gloove" sketch:type="MSTextLayer" font-family="Intro Script B" font-size="1" font-weight="normal">
                    <tspan x="1" y="1">Gloove</tspan>
                </text>
            </g>
            <g id="Logo-Copy-5" transform="translate(389.000000, 166.000000)" fill="#FFFFFF">
                <g id="fashion" sketch:type="MSShapeGroup">
                    <g id="Capa_1">
                        <g id="Group">
                            <path d="M0.311448029,0.62852931 C0.270379928,0.587252862 0.271673835,0.521335414 0.314329749,0.481588623 C0.357258065,0.44159556 0.425236559,0.443243149 0.46616129,0.484380853 L0.46711828,0.485341658 L0.440215054,0.26438779 C0.433286738,0.207478321 0.475491039,0.155723205 0.53427957,0.149021852 C0.537698925,0.148629899 0.541157706,0.148439126 0.544598566,0.148366285 L0.548899642,0.0994693028 C0.551412186,0.0709157128 0.529526882,0.0457960458 0.500021505,0.0433645508 C0.47053405,0.0409330558 0.44455914,0.0621123829 0.442046595,0.0906659729 L0.427032258,0.261352758 C0.426100358,0.271932015 0.409749104,0.271279917 0.409749104,0.260641693 L0.409749104,0.051890392 C0.409749104,0.0232327437 0.385741935,0 0.356129032,0 C0.326516129,0 0.302508961,0.0232327437 0.302508961,0.051890392 L0.302508961,0.257349983 C0.302508961,0.266007631 0.289265233,0.266774194 0.288215054,0.258161637 L0.267903226,0.0913631634 C0.264437276,0.0629032258 0.237784946,0.0425390219 0.208376344,0.0459001041 C0.178964158,0.049254249 0.157935484,0.0750468262 0.161397849,0.103510232 L0.203265233,0.447367326 C0.20446595,0.457228581 0.191978495,0.462937912 0.184867384,0.455789109 L0.095218638,0.365678113 C0.0746810036,0.34503642 0.0407383513,0.344408602 0.0194050179,0.364287201 C-0.00192831541,0.384162331 -0.0025734767,0.417010059 0.0179677419,0.43765522 C0.256853047,0.677773153 0.263577061,0.677717655 0.269670251,0.681460284 C0.254258065,0.684269858 0.242594982,0.697346514 0.242594982,0.713076656 L0.242594982,0.797134929 C0.242594982,0.814915019 0.257491039,0.829330558 0.275863799,0.829330558 L0.511218638,0.829330558 C0.491035842,0.809042664 0.333028674,0.650218522 0.311448029,0.62852931 L0.311448029,0.62852931 Z" id="Shape"></path>
                            <path d="M0.940354839,0.641911204 L0.998616487,0.365737079 C1.00400358,0.340190773 0.98697491,0.315254943 0.960573477,0.310038155 C0.934193548,0.304852584 0.908408602,0.321311134 0.903017921,0.346853972 L0.879792115,0.456954561 C0.877702509,0.466853972 0.862612903,0.46458897 0.863487455,0.454679154 L0.88111828,0.254255983 C0.883630824,0.225702393 0.86174552,0.200582726 0.832240143,0.198151231 C0.802741935,0.195719736 0.776777778,0.216902532 0.774265233,0.245452653 L0.759250896,0.416139438 C0.758308244,0.426829691 0.741967742,0.426066597 0.741967742,0.415428373 L0.741967742,0.206680541 C0.741967742,0.178022893 0.717960573,0.154790149 0.68834767,0.154790149 C0.658734767,0.154790149 0.634727599,0.178022893 0.634727599,0.206680541 L0.634727599,0.412140132 C0.634727599,0.420811655 0.621491039,0.421637183 0.620433692,0.412951786 L0.600125448,0.246153313 C0.596659498,0.217700312 0.570010753,0.197329171 0.540594982,0.200690253 C0.51118638,0.204044398 0.490154122,0.229836975 0.493620072,0.258300382 L0.535487455,0.602157475 C0.536695341,0.612081165 0.524154122,0.617679501 0.517089606,0.610579258 L0.42744086,0.520468262 C0.40690681,0.499830038 0.372964158,0.499195283 0.35162724,0.519073881 C0.330293907,0.53895248 0.329648746,0.571800208 0.350189964,0.592441901 C0.350189964,0.592441901 0.595795699,0.832504336 0.601888889,0.836246965 C0.586480287,0.839060007 0.574817204,0.852133195 0.574817204,0.867863337 L0.574817204,0.951921609 C0.574817204,0.9697017 0.589713262,0.984117239 0.608086022,0.984117239 L0.924175627,0.984117239 C0.942548387,0.984117239 0.957444444,0.9697017 0.957444444,0.951921609 L0.957444444,0.867863337 C0.957444444,0.852043011 0.945645161,0.838917794 0.930103943,0.836205342 C0.936530466,0.827648283 0.940365591,0.817152272 0.940365591,0.805764828 L0.940365591,0.641911204 L0.940354839,0.641911204 Z M0.902946237,1.00618453 C0.866125694,1.00618453 0.83627957,0.976338406 0.83627957,0.939517863 C0.83627957,0.902697321 0.866125694,0.872851197 0.902946237,0.872851197 C0.939766779,0.872851197 0.969612903,0.902697321 0.969612903,0.939517863 C0.969612903,0.976338406 0.939760327,1.00618453 0.902946237,1.00618453 L0.902946237,1.00618453 Z" id="Shape"></path>
                        </g>
                    </g>
                </g>
                <text id="Gloove" sketch:type="MSTextLayer" font-family="Intro Script B" font-size="1" font-weight="normal">
                    <tspan x="1" y="1">Gloove</tspan>
                </text>
            </g>
        </g>
        <path d="M413,160.006202 C413,157.241353 415.240679,155 418.00628,155 L458.99372,155 C461.758612,155 464,157.243234 464,160.006202 L464,164.250128 C464,167.014977 461.75641,169.25633 458.998311,169.25633 L440.597886,169.25633 L430.016665,169.25633 C428.555297,169.25633 420.056773,175.770025 418.595405,175.770025 C417.134037,175.770025 422.709825,169.25633 421.248457,169.25633 L417.994869,169.25633 C415.236279,169.25633 413,167.013096 413,164.250128 L413,160.006202 Z" id="Rectangle-96" stroke="#CEC7C7" stroke-width="0.4" fill="#FFFFFF" sketch:type="MSShapeGroup"></path>
        <text id="Lad-mig-lfte-for-di" sketch:type="MSTextLayer" font-family="Quicksand" font-size="4" font-weight="bold" fill="#212121">
            <tspan x="418" y="163">Lad mig lfte for dig!</tspan>
        </text>
    </g>
</svg>