<?xml version="1.0" encoding="UTF-8" standalone="no"?>
<svg width="220px" height="185px" viewBox="0 0 220 185" version="1.1" xmlns="http://www.w3.org/2000/svg" xmlns:xlink="http://www.w3.org/1999/xlink" xmlns:sketch="http://www.bohemiancoding.com/sketch/ns">
    <!-- Generator: Sketch 3.4 (15575) - http://www.bohemiancoding.com/sketch -->
    <title>step-two</title>
    <desc>Created with Sketch.</desc>
    <defs></defs>
    <g id="Icons" stroke="none" stroke-width="1" fill="none" fill-rule="evenodd" sketch:type="MSPage">
        <g id="step-two" sketch:type="MSLayerGroup" transform="translate(-40.000000, -53.000000)">
            <path d="M43,87 L124.709961,87 L124.709961,109.118164 L174.851562,109.118164 L176.023438,87 L255,87 L255,229 L43,229 L43,87 Z" id="Rectangle-13" fill="#F4F5F9" sketch:type="MSShapeGroup"></path>
            <path d="M150,109.118164 L175.646441,109.118164 L175.646441,87 L215.88425,87 L255,87 L255,229 L150,229 L150,109.118164 Z" id="Rectangle-13-Copy" fill="#E6E6E6" sketch:type="MSShapeGroup"></path>
            <g id="business-1" transform="translate(40.000000, 53.000000)" sketch:type="MSShapeGroup">
                <g id="Group">
                    <path d="M140.440816,0 L79.5591837,0 L79.5591837,28.555102 L0,28.555102 L0,184.440816 L220,184.440816 L220,28.555102 L140.440816,28.555102 L140.440816,0 Z M88.9428571,8.88979592 L131.55102,8.88979592 L131.55102,51.0040816 L88.9428571,51.0040816 L88.9428571,8.88979592 L88.9428571,8.88979592 Z M9.38367347,175.55102 L9.38367347,37.9387755 L79.6040816,37.9387755 L79.6040816,60.3877551 L140.440816,60.3877551 L140.440816,37.9387755 L210.661224,37.9387755 L210.661224,175.55102 L9.38367347,175.55102 Z" id="Shape" fill="#5B60AF"></path>
                    <path d="M66.4489796,107.432653 C77.6734694,107.432653 87.0571429,98.0489796 87.5061224,86.3755102 C87.5061224,74.6571429 78.122449,65.3183673 66.4489796,65.3183673 C54.7755102,65.3183673 45.3918367,74.7020408 45.3918367,86.3755102 C45.3918367,98.0489796 54.7755102,107.432653 66.4489796,107.432653 L66.4489796,107.432653 Z M66.4489796,74.6571429 C73.0040816,74.6571429 78.1673469,79.8204082 78.1673469,86.3755102 C78.1673469,92.9306122 73.0040816,98.0938776 66.4489796,98.0938776 C59.8938776,98.0938776 54.7306122,92.9306122 54.7306122,86.3755102 C54.7306122,79.8204082 59.8938776,74.6571429 66.4489796,74.6571429 L66.4489796,74.6571429 Z" id="Shape" fill="#383A86"></path>
                    <path d="M66,113.493878 C42.6081633,113.493878 23.8857143,132.665306 23.8857143,155.608163 L33.2244898,155.608163 C33.2244898,137.334694 47.7265306,122.832653 66,122.832653 C84.2734694,122.832653 98.7755102,137.334694 98.7755102,155.608163 L108.159184,155.608163 C108.114286,132.710204 89.3918367,113.493878 66,113.493878 L66,113.493878 Z" id="Shape" fill="#383A86"></path>
                    <rect id="Rectangle-path" fill="#ACD1D9" x="132.44898" y="95.7142857" width="57.1102041" height="9.38367347"></rect>
                    <rect id="Rectangle-path" fill="#383A86" x="132.44898" y="127.097959" width="57.1102041" height="9.38367347"></rect>
                </g>
            </g>
        </g>
    </g>
</svg>