<?xml version="1.0" encoding="UTF-8" standalone="no"?>
<svg width="211px" height="216px" viewBox="0 0 211 216" version="1.1" xmlns="http://www.w3.org/2000/svg" xmlns:xlink="http://www.w3.org/1999/xlink" xmlns:sketch="http://www.bohemiancoding.com/sketch/ns">
    <!-- Generator: Sketch 3.4 (15575) - http://www.bohemiancoding.com/sketch -->
    <title>step-one</title>
    <desc>Created with Sketch.</desc>
    <defs></defs>
    <g id="Icons" stroke="none" stroke-width="1" fill="none" fill-rule="evenodd" sketch:type="MSPage">
        <g id="step-one" sketch:type="MSLayerGroup" transform="translate(-45.000000, -42.000000)">
            <g id="business" transform="translate(45.000000, 42.000000)" sketch:type="MSShapeGroup">
                <rect id="Rectangle-12" fill="#F4F5F9" x="6" y="9" width="155" height="207"></rect>
                <rect id="Rectangle-12-Copy" fill="#E6E6E6" x="84" y="9" width="78" height="207"></rect>
                <g id="Group">
                    <rect id="Rectangle-path" fill="#ACD1D9" x="30.5146444" y="55.3221757" width="109.171548" height="9.57322176"></rect>
                    <rect id="Rectangle-path" fill="#383A86" x="30.5146444" y="107.974895" width="98.6317992" height="9.57322176"></rect>
                    <rect id="Rectangle-path" fill="#383A86" x="30.5146444" y="160.627615" width="73.2719665" height="9.57322176"></rect>
                    <path d="M210.368201,28.2232539 C210.368201,12.7950423 198.246035,0.49655365 182.861904,0.276150628 L20.5571177,0.276150628 C9.53696658,0.276150628 0.368200837,9.44491637 0.368200837,20.4650675 L0.368200837,215.786226 L163.598679,215.786226 L163.598679,96.988997 L210.368201,96.988997 L210.368201,28.2232539 L210.368201,28.2232539 Z M154.429914,206.61746 L9.05207993,206.61746 L9.05207993,20.4209869 C9.05207993,14.4701053 14.0772688,9.40083577 20.5130371,9.40083577 L161.570972,9.40083577 C157.118831,14.3378635 154.429914,20.9058735 154.429914,28.2232539 L154.429914,206.61746 L154.429914,206.61746 Z M201.684322,87.8202312 L163.64276,87.8202312 L163.201954,28.2232539 C163.201954,19.0985688 169.725883,11.3403824 178.321601,9.40083577 L182.905984,9.40083577 L182.905984,8.96002972 C193.264926,9.22451335 201.728402,17.8202312 201.728402,28.2232539 L201.728402,87.8202312 L201.684322,87.8202312 Z" id="Shape" fill="#5B60AF"></path>
                </g>
            </g>
        </g>
    </g>
</svg>