<?xml version="1.0" encoding="UTF-8" standalone="no"?>
<svg width="502px" height="359px" viewBox="0 0 502 359" version="1.1" xmlns="http://www.w3.org/2000/svg" xmlns:xlink="http://www.w3.org/1999/xlink" xmlns:sketch="http://www.bohemiancoding.com/sketch/ns">
    <!-- Generator: Sketch 3.4 (15575) - http://www.bohemiancoding.com/sketch -->
    <title>mail</title>
    <desc>Created with Sketch.</desc>
    <defs></defs>
    <g id="Icons" stroke="none" stroke-width="1" fill="none" fill-rule="evenodd" sketch:type="MSPage">
        <g id="mail" sketch:type="MSLayerGroup" fill="#ACD1D9">
            <g id="Capa_1" sketch:type="MSShapeGroup">
                <g id="Group">
                    <path d="M251,251 L188.895429,196.640571 L11.3308571,348.854143 C17.7851429,354.842286 26.4984286,358.571429 36.1081429,358.571429 L465.891857,358.571429 C475.465714,358.571429 484.143143,354.842286 490.561571,348.854143 L313.104571,196.640571 L251,251 L251,251 Z" id="Shape"></path>
                    <path d="M490.669143,9.71728571 C484.214857,3.69328571 475.537429,0 465.891857,0 L36.1081429,0 C26.5342857,0 17.8568571,3.72914286 11.4025714,9.789 L251,215.142857 L490.669143,9.71728571 L490.669143,9.71728571 Z" id="Shape"></path>
                    <path d="M0,31.4825714 L0,329.383714 L173.297571,182.118429 L0,31.4825714 Z" id="Shape"></path>
                    <path d="M328.702429,182.118429 L502,329.383714 L502,31.375 L328.702429,182.118429 Z" id="Shape"></path>
                </g>
            </g>
        </g>
    </g>
</svg>